<svg width="702" height="541" viewBox="0 0 702 541" fill="none" xmlns="http://www.w3.org/2000/svg">
<path d="M82.8779 132.629L228.027 233.249L222.909 425.083" stroke="#263238" stroke-linecap="round" stroke-linejoin="round"/>
<path d="M196.225 240.933L184.864 432.518" stroke="#263238" stroke-linecap="round" stroke-linejoin="round"/>
<path d="M197.735 215.398L196.879 229.928" stroke="#263238" stroke-linecap="round" stroke-linejoin="round"/>
<path d="M141.213 325.363L126.696 440.016" stroke="#263238" stroke-linecap="round" stroke-linejoin="round"/>
<path d="M158.852 184.973L142.522 315.009" stroke="#263238" stroke-linecap="round" stroke-linejoin="round"/>
<path d="M101.154 178.81L45.7227 450.991" stroke="#263238" stroke-linecap="round" stroke-linejoin="round"/>
<path d="M106.977 150.17L102.312 173.036" stroke="#263238" stroke-linecap="round" stroke-linejoin="round"/>
<path d="M70.4424 155.029L94.2563 168.643" stroke="#263238" stroke-linecap="round" stroke-linejoin="round"/>
<path d="M147.59 199.114L110.568 177.957" stroke="#263238" stroke-linecap="round" stroke-linejoin="round"/>
<path d="M189.78 223.237L163.634 208.288" stroke="#263238" stroke-linecap="round" stroke-linejoin="round"/>
<path d="M223.178 242.315L201.696 230.036" stroke="#263238" stroke-linecap="round" stroke-linejoin="round"/>
<path d="M91.7726 178.251L61.313 161.719" stroke="#263238" stroke-linecap="round" stroke-linejoin="round"/>
<path d="M146.113 207.73L108.84 187.503" stroke="#263238" stroke-linecap="round" stroke-linejoin="round"/>
<path d="M190.485 231.806L164.49 217.695" stroke="#263238" stroke-linecap="round" stroke-linejoin="round"/>
<path d="M221.717 248.757L200.723 237.363" stroke="#263238" stroke-linecap="round" stroke-linejoin="round"/>
<path d="M89.1383 192.331L66.667 181.542" stroke="#263238" stroke-linecap="round" stroke-linejoin="round"/>
<path d="M144.402 218.86L108.354 201.551" stroke="#263238" stroke-linecap="round" stroke-linejoin="round"/>
<path d="M190.62 241.042L162.745 227.661" stroke="#263238" stroke-linecap="round" stroke-linejoin="round"/>
<path d="M221.583 255.913L200.152 245.621" stroke="#263238" stroke-linecap="round" stroke-linejoin="round"/>
<path d="M85.7142 205.323L69.5361 198.618" stroke="#263238" stroke-linecap="round" stroke-linejoin="round"/>
<path d="M144.066 229.57L104.225 213.023" stroke="#263238" stroke-linecap="round" stroke-linejoin="round"/>
<path d="M188.958 248.214L161.335 236.742" stroke="#263238" stroke-linecap="round" stroke-linejoin="round"/>
<path d="M221.599 261.765L200.538 253.026" stroke="#263238" stroke-linecap="round" stroke-linejoin="round"/>
<path d="M46.0579 406.036L0.712402 406.688" stroke="#263238" stroke-linecap="round" stroke-linejoin="round"/>
<path d="M121.393 404.949L66.23 405.741" stroke="#263238" stroke-linecap="round" stroke-linejoin="round"/>
<path d="M180.617 404.08L139.535 404.686" stroke="#263238" stroke-linecap="round" stroke-linejoin="round"/>
<path d="M218.277 403.537L193.892 403.894" stroke="#263238" stroke-linecap="round" stroke-linejoin="round"/>
<path d="M41.728 418.206L3.34717 419.852" stroke="#263238" stroke-linecap="round" stroke-linejoin="round"/>
<path d="M119.447 414.869L63.6123 417.259" stroke="#263238" stroke-linecap="round" stroke-linejoin="round"/>
<path d="M179.627 412.276L139.803 414" stroke="#263238" stroke-linecap="round" stroke-linejoin="round"/>
<path d="M217.455 410.662L193.003 411.718" stroke="#263238" stroke-linecap="round" stroke-linejoin="round"/>
<path d="M38.1366 432.472L7.84473 435.049" stroke="#263238" stroke-linecap="round" stroke-linejoin="round"/>
<path d="M118.322 425.673L59.8862 430.64" stroke="#263238" stroke-linecap="round" stroke-linejoin="round"/>
<path d="M178.738 420.55L139.182 423.903" stroke="#263238" stroke-linecap="round" stroke-linejoin="round"/>
<path d="M218.075 417.213L192.6 419.37" stroke="#263238" stroke-linecap="round" stroke-linejoin="round"/>
<path d="M35.2673 445.418L10.48 448.212" stroke="#263238" stroke-linecap="round" stroke-linejoin="round"/>
<path d="M115.536 436.399L56.2783 443.059" stroke="#263238" stroke-linecap="round" stroke-linejoin="round"/>
<path d="M177.782 429.398L136.783 434.009" stroke="#263238" stroke-linecap="round" stroke-linejoin="round"/>
<path d="M217.169 424.974L193.875 427.598" stroke="#263238" stroke-linecap="round" stroke-linejoin="round"/>
<path d="M134.03 241.057L144.955 245.14L142.035 274.494L129.516 271.56L134.03 241.057Z" stroke="#263238" stroke-linecap="round" stroke-linejoin="round"/>
<path d="M177.278 282.783L179.678 258.071L187.867 261.129L186.407 284.925L177.278 282.783Z" stroke="#263238" stroke-linecap="round" stroke-linejoin="round"/>
<path d="M66.4816 215.879L83.1296 222.088L76.4167 259.095L59.4331 255.106L66.4816 215.879Z" stroke="#263238" stroke-linecap="round" stroke-linejoin="round"/>
<path d="M212.89 270.458L220.929 273.454L220.744 292.982L212.856 291.135L212.89 270.458Z" stroke="#263238" stroke-linecap="round" stroke-linejoin="round"/>
<path d="M618.834 132.629L473.685 233.249L478.804 425.083" stroke="#263238" stroke-linecap="round" stroke-linejoin="round"/>
<path d="M505.487 240.933L516.849 432.518" stroke="#263238" stroke-linecap="round" stroke-linejoin="round"/>
<path d="M503.977 215.398L504.833 229.928" stroke="#263238" stroke-linecap="round" stroke-linejoin="round"/>
<path d="M560.5 325.363L575.016 440.016" stroke="#263238" stroke-linecap="round" stroke-linejoin="round"/>
<path d="M542.861 184.973L559.19 315.009" stroke="#263238" stroke-linecap="round" stroke-linejoin="round"/>
<path d="M600.559 178.81L655.99 450.991" stroke="#263238" stroke-linecap="round" stroke-linejoin="round"/>
<path d="M594.735 150.17L599.401 173.036" stroke="#263238" stroke-linecap="round" stroke-linejoin="round"/>
<path d="M607.456 168.643L631.27 155.029" stroke="#263238" stroke-linecap="round" stroke-linejoin="round"/>
<path d="M554.122 199.114L591.144 177.957" stroke="#263238" stroke-linecap="round" stroke-linejoin="round"/>
<path d="M511.932 223.237L538.078 208.288" stroke="#263238" stroke-linecap="round" stroke-linejoin="round"/>
<path d="M478.535 242.315L500.016 230.036" stroke="#263238" stroke-linecap="round" stroke-linejoin="round"/>
<path d="M609.94 178.251L640.4 161.719" stroke="#263238" stroke-linecap="round" stroke-linejoin="round"/>
<path d="M555.599 207.73L592.872 187.503" stroke="#263238" stroke-linecap="round" stroke-linejoin="round"/>
<path d="M511.227 231.806L537.223 217.695" stroke="#263238" stroke-linecap="round" stroke-linejoin="round"/>
<path d="M479.995 248.757L500.99 237.363" stroke="#263238" stroke-linecap="round" stroke-linejoin="round"/>
<path d="M612.575 192.331L635.046 181.542" stroke="#263238" stroke-linecap="round" stroke-linejoin="round"/>
<path d="M557.311 218.86L593.359 201.551" stroke="#263238" stroke-linecap="round" stroke-linejoin="round"/>
<path d="M511.093 241.042L538.968 227.661" stroke="#263238" stroke-linecap="round" stroke-linejoin="round"/>
<path d="M480.129 255.913L501.56 245.621" stroke="#263238" stroke-linecap="round" stroke-linejoin="round"/>
<path d="M615.998 205.323L632.176 198.618" stroke="#263238" stroke-linecap="round" stroke-linejoin="round"/>
<path d="M557.646 229.57L597.487 213.023" stroke="#263238" stroke-linecap="round" stroke-linejoin="round"/>
<path d="M512.754 248.214L540.377 236.742" stroke="#263238" stroke-linecap="round" stroke-linejoin="round"/>
<path d="M480.113 261.765L501.174 253.026" stroke="#263238" stroke-linecap="round" stroke-linejoin="round"/>
<path d="M655.655 406.036L701 406.688" stroke="#263238" stroke-linecap="round" stroke-linejoin="round"/>
<path d="M580.319 404.949L635.482 405.741" stroke="#263238" stroke-linecap="round" stroke-linejoin="round"/>
<path d="M521.095 404.08L562.178 404.686" stroke="#263238" stroke-linecap="round" stroke-linejoin="round"/>
<path d="M483.436 403.537L507.82 403.894" stroke="#263238" stroke-linecap="round" stroke-linejoin="round"/>
<path d="M659.985 418.206L698.365 419.852" stroke="#263238" stroke-linecap="round" stroke-linejoin="round"/>
<path d="M582.266 414.869L638.1 417.259" stroke="#263238" stroke-linecap="round" stroke-linejoin="round"/>
<path d="M522.085 412.276L561.909 414" stroke="#263238" stroke-linecap="round" stroke-linejoin="round"/>
<path d="M484.258 410.662L508.709 411.718" stroke="#263238" stroke-linecap="round" stroke-linejoin="round"/>
<path d="M663.575 432.472L693.867 435.049" stroke="#263238" stroke-linecap="round" stroke-linejoin="round"/>
<path d="M583.391 425.673L641.826 430.64" stroke="#263238" stroke-linecap="round" stroke-linejoin="round"/>
<path d="M522.975 420.55L562.53 423.903" stroke="#263238" stroke-linecap="round" stroke-linejoin="round"/>
<path d="M483.637 417.213L509.112 419.37" stroke="#263238" stroke-linecap="round" stroke-linejoin="round"/>
<path d="M666.446 445.418L691.233 448.212" stroke="#263238" stroke-linecap="round" stroke-linejoin="round"/>
<path d="M586.176 436.399L645.434 443.059" stroke="#263238" stroke-linecap="round" stroke-linejoin="round"/>
<path d="M523.931 429.398L564.93 434.009" stroke="#263238" stroke-linecap="round" stroke-linejoin="round"/>
<path d="M484.543 424.974L507.837 427.598" stroke="#263238" stroke-linecap="round" stroke-linejoin="round"/>
<path d="M567.682 241.057L556.757 245.14L559.677 274.494L572.196 271.56L567.682 241.057Z" stroke="#263238" stroke-linecap="round" stroke-linejoin="round"/>
<path d="M524.435 282.783L522.035 258.071L513.845 261.129L515.305 284.925L524.435 282.783Z" stroke="#263238" stroke-linecap="round" stroke-linejoin="round"/>
<path d="M635.23 215.879L618.583 222.088L625.295 259.095L642.279 255.106L635.23 215.879Z" stroke="#263238" stroke-linecap="round" stroke-linejoin="round"/>
<path d="M488.823 270.458L480.784 273.454L480.969 292.982L488.856 291.135L488.823 270.458Z" stroke="#263238" stroke-linecap="round" stroke-linejoin="round"/>
<path d="M89.0537 459.358C128.593 452.621 181.792 443.555 222.237 436.601" stroke="#263238" stroke-linecap="round" stroke-linejoin="round"/>
<path d="M33.8569 468.672L75.0573 461.671" stroke="#263238" stroke-linecap="round" stroke-linejoin="round"/>
<path d="M637.529 464.015C595.305 454.701 526.465 439.876 478.77 431.68" stroke="#263238" stroke-linecap="round" stroke-linejoin="round"/>
<path d="M681.247 472.428C681.247 472.428 671.396 470.224 655.604 466.654" stroke="#263238" stroke-linecap="round" stroke-linejoin="round"/>
<path d="M195.52 211.672L204.868 114.033L135.39 42.3628" stroke="#263238" stroke-linecap="round" stroke-linejoin="round"/>
<path d="M490.786 221.561L485.45 115.274L569.612 42.3628" stroke="#263238" stroke-linecap="round" stroke-linejoin="round"/>
<path d="M297.74 494.548C297.74 494.548 271.711 498.848 253.116 505.74C234.522 512.633 303.329 511.763 288.443 514.34C273.557 516.917 228.027 522.94 245.665 532.393C263.303 541.847 398.165 543.586 437.217 534.986C476.269 526.386 368.41 505.74 387.945 497.994C407.479 490.248 427.92 497.994 426.997 487.672C426.074 477.349 388.918 464.853 382.86 465.086C376.801 465.318 415.837 479.941 393.516 484.241C371.196 488.541 327.495 484.194 297.74 494.548Z" fill="#4E8397"/>
<path opacity="0.6" d="M297.74 494.548C297.74 494.548 271.711 498.848 253.116 505.74C234.522 512.633 303.329 511.763 288.443 514.34C273.557 516.917 228.027 522.94 245.665 532.393C263.303 541.847 398.165 543.586 437.217 534.986C476.269 526.386 368.41 505.74 387.945 497.994C407.479 490.248 427.92 497.994 426.997 487.672C426.074 477.349 388.918 464.853 382.86 465.086C376.801 465.318 415.837 479.941 393.516 484.241C371.196 488.541 327.495 484.194 297.74 494.548Z" fill="white"/>
<path d="M353.466 119.109C353.466 119.109 336.314 124.852 330.474 127.212C324.634 129.571 306.039 131.605 303.119 133.297C300.199 134.989 227.599 209.235 229.043 210.586C230.486 211.936 246.916 212.604 251.665 211.595C256.414 210.586 315.521 157.59 315.521 157.59C315.521 157.59 323.191 157.932 323.191 163.334C323.191 168.736 326.833 227.459 326.833 227.459L402.352 226.109L402.722 154.889C402.722 154.889 403.443 147.811 409.283 148.137C415.124 148.463 477.537 169.077 477.537 169.077L495.359 154.889C495.359 154.889 432.225 132.272 420.175 125.194C408.126 118.115 404.853 110.68 400.036 110.68C395.22 110.68 353.466 119.109 353.466 119.109Z" fill="white"/>
<g style="mix-blend-mode:multiply">
<path d="M484.518 150.946L480.255 155.2L465.772 149.891L469.129 145.234L466.746 144.349L463.389 149.006C458.355 147.143 453.471 145.327 449.359 143.775L452.229 138.838L449.896 137.938L447.027 142.89C442.697 141.338 439.525 140.034 438.484 139.552C437.091 138.9 434.541 137.69 431.469 136.184L432.443 130.906L430.077 129.897L429.12 135.035C424.303 132.645 418.648 129.788 414.016 127.274L413.496 120.506C412.522 119.73 411.633 118.953 410.794 118.255L411.381 125.846C409.219 124.723 407.145 123.462 405.172 122.073C400.389 118.27 399.701 118.27 399.281 118.27V118.488C398.509 114.483 398.006 111.704 397.989 111.611L395.505 111.999C395.505 112.341 396.042 114.995 396.764 118.736L390.907 119.854V111.984L388.39 112.418V120.335L377.146 122.477V114.498L374.645 114.979V122.958L362.209 125.333L361.79 117.463L359.306 117.96L359.726 125.815L341.769 129.245L340.745 123.471L338.345 124.309L339.302 129.726L331.85 131.139L331.162 126.948L330.541 127.196C329.96 127.426 329.366 127.628 328.762 127.801L329.383 131.62L316.36 134.104L315.706 130.502L313.239 130.937L313.893 134.585L305.704 136.137L304.412 132.8C303.985 132.917 303.574 133.079 303.186 133.281C302.841 133.516 302.521 133.781 302.23 134.073L303.27 136.743L294.745 145.963L292.849 143.2L291.17 144.97L293.117 147.826L277.359 164.902L274.237 162.138L272.559 163.861L275.731 166.671L263.731 179.648L259.838 176.978L258.16 178.717L262.104 181.418L247.923 196.77L243.341 194.302L241.663 196.103L246.261 198.571L234.195 211.626C235.151 211.719 236.192 211.812 237.283 211.874L248.476 199.751L252.202 201.753L241.881 212.06C243.039 212.06 244.197 212.06 245.238 212.06L254.384 202.933L258.244 204.997L251.212 211.672L251.766 211.579C253.159 211.284 259.217 206.519 267.088 199.937L276.301 191.198L276.905 191.617L278.768 190.064L278.063 189.568L289.358 178.841L290.499 179.866L292.345 178.313L291.12 177.227L304.546 164.544L305.855 166.454L307.701 164.808L306.341 162.821L311.527 157.901L312.534 160.493L314.531 158.723L313.608 156.348L317.72 155.634L318.156 158.087C319.135 158.329 320.065 158.717 320.908 159.236L320.204 155.2L332.975 152.98L334.821 164.25L323.258 165.973C323.258 166.656 323.258 167.447 323.375 168.317L335.039 166.469L336.617 176.14L324.181 178.391L323.778 176.14C324.114 182.349 324.567 189.847 325.003 197.283L327.118 209.127L325.742 209.623C325.742 210.462 325.842 211.269 325.893 212.06L327.571 211.455L330.407 227.366H332.958L329.988 210.694C333.982 209.359 337.926 208.226 341.735 207.279L344.991 227.149H347.542L344.185 206.752C346.988 206.1 349.74 205.556 352.476 205.106L356.319 226.994H358.853L354.943 204.749C357.947 204.299 360.9 203.957 363.787 203.694L364.945 225.426L363.267 226.978H366.892L367.529 226.404L366.321 203.631C369.275 203.43 372.161 203.321 374.997 203.29L375.115 226.838H377.632L377.515 203.337C381.123 203.337 384.614 203.538 388.004 203.818L387.953 226.373H390.471L390.554 203.818C394.75 204.252 398.744 204.837 402.537 205.572V203.228C398.727 202.529 394.733 201.939 390.554 201.52V187.286C394.569 187.407 398.574 187.718 402.554 188.217V185.889C398.573 185.4 394.568 185.099 390.554 184.988V168.658L402.587 166.438V164.063L390.554 166.283V157.714L402.587 155.805V154.967C402.656 154.442 402.769 153.923 402.923 153.414L390.554 155.37V142.952L401.362 141.074C401.947 143.47 402.681 145.834 403.561 148.152L405.91 147.329C405.144 145.322 404.505 143.274 403.997 141.198L412.707 146.258L413.127 148.897C413.899 149.084 414.805 149.316 415.694 149.58L415.543 147.64L421.954 151.365C424.941 152.25 428.298 153.275 431.839 154.361L428.482 152.405L429.388 147.578C433.03 149.285 437.024 151.133 441.136 153.026L439.072 156.659L441.488 157.419L443.418 154.082C447.429 155.914 451.575 157.776 455.636 159.608L454.26 161.486L456.727 162.278L457.935 160.633C462.013 162.464 466.007 164.234 469.683 165.864L469.213 166.33L471.797 167.183L472.049 166.92L475.103 168.27L477.503 169.062L479.383 167.509L473.828 165.072L480.943 157.885L488.177 160.524L490.341 158.816L482.773 156.038L487.002 151.785L484.518 150.946ZM374.679 143.262L363.2 145.249L362.73 136.37L374.628 133.855L374.679 143.262ZM374.679 125.349V131.48L362.662 133.995L362.327 127.708L374.679 125.349ZM362.209 173.734L362.881 186.37C359.189 186.836 355.547 187.394 352.039 187.922L349.925 175.923L362.209 173.734ZM362.075 171.39L349.522 173.734L347.844 164.42L361.555 162.247L362.075 171.39ZM361.471 159.841L347.475 162.061L345.461 150.636L360.833 147.966L361.471 159.841ZM347.055 174.153L339.1 175.612L337.523 166.004L345.394 164.746L347.055 174.153ZM360.699 145.622L345.058 148.338L343.648 140.313L360.246 136.82L360.699 145.622ZM359.776 128.127L360.112 134.461L343.329 138.016L342.188 131.496L359.776 128.127ZM314.229 136.836L315.488 143.868L309.95 145.032L309.631 144.163L309.01 144.784L306.493 138.311L314.229 136.836ZM304.16 139.226L307.063 146.709L300.031 153.74L296.071 147.981L304.16 139.226ZM294.376 149.829L298.269 155.51L283.4 170.35L279.02 166.454L294.376 149.829ZM277.375 168.223L281.722 172.182L269.857 184.026L265.611 181.108L277.375 168.223ZM253.796 199.937L249.97 197.888L263.95 182.753L268.128 185.609L253.796 199.937ZM259.939 203.228L256.028 201.132L270.159 187.006L274.136 189.738L259.939 203.228ZM275.915 188.062L271.871 185.299L283.518 173.656L287.428 177.134L275.915 188.062ZM289.173 175.457L285.229 171.949L299.662 157.544L303.019 162.356L289.173 175.457ZM304.781 160.648L301.424 155.774L308.02 149.177L310.403 155.308L304.781 160.648ZM313.172 153.865L310.755 147.345L315.907 146.258L317.166 153.259L313.172 153.865ZM316.696 136.479L329.702 133.995L330.81 140.763L317.938 143.464L316.696 136.479ZM319.616 152.871L318.358 145.762L331.179 143.061L332.438 150.651L319.616 152.871ZM332.169 133.529L339.637 132.101L340.795 138.652L333.26 140.204L332.169 133.529ZM334.905 150.217L333.646 142.548L341.198 140.996L342.641 148.897L334.905 150.217ZM335.291 152.514L342.994 151.179L344.991 162.573L337.137 163.815L335.291 152.514ZM326.9 193.743L324.6 180.782L337.003 178.5L339.016 190.732C334.653 191.663 330.575 192.688 326.9 193.681V193.743ZM329.518 208.397L327.319 195.979C330.978 194.985 335.039 193.961 339.386 192.967L341.349 204.951C337.472 205.898 333.529 207.015 329.518 208.335V208.397ZM341.467 190.189L339.47 178.05L347.458 176.497L349.556 188.496C346.787 189.024 344.085 189.568 341.467 190.126V190.189ZM343.799 204.439L341.836 192.486C344.454 191.912 347.173 191.368 349.958 190.84L352.056 202.793C349.354 203.228 346.602 203.74 343.799 204.377V204.439ZM354.54 202.405L352.442 190.406C355.799 189.8 359.407 189.257 362.998 188.854L363.669 201.381C360.682 201.577 357.639 201.898 354.54 202.343V202.405ZM363.334 147.655L374.695 145.684V157.854L363.921 159.562L363.334 147.655ZM364.089 161.906L374.762 160.214V169.17L364.525 171.049L364.089 161.906ZM364.693 173.408L374.762 171.545V185.314C371.557 185.532 368.385 185.811 365.247 186.184L364.693 173.408ZM366.17 201.132L365.499 188.481C368.609 188.119 371.742 187.829 374.897 187.612V200.791C372.094 200.76 369.174 200.868 366.136 201.07L366.17 201.132ZM387.987 201.272C384.63 200.993 381.089 200.822 377.481 200.791V187.456C381.022 187.27 384.58 187.177 388.121 187.224L387.987 201.272ZM387.987 184.926C384.446 184.926 380.888 184.926 377.347 185.159L377.263 171.08L388.121 169.077L387.987 184.926ZM388.071 166.718L377.263 168.705V159.825L388.155 158.087L388.071 166.718ZM388.071 155.727L377.146 157.466V145.249L388.171 143.34L388.071 155.727ZM388.071 140.965L377.028 142.89V133.39L388.171 131.046L388.071 140.965ZM388.071 128.655L376.911 130.999V124.93L388.138 122.788L388.071 128.655ZM390.622 122.306L396.948 121.096C397.284 122.803 397.653 124.65 398.039 126.56L390.605 128.112L390.622 122.306ZM390.538 140.53V130.518L398.476 128.842C399.181 132.195 399.952 135.641 400.724 138.761L390.538 140.53ZM400.607 126.016H400.473C400.12 124.324 399.785 122.663 399.483 121.127C400.171 121.561 401.312 122.384 403.242 123.905C405.804 125.683 408.496 127.296 411.297 128.733L411.851 135.734C406.699 131.356 401.866 126.42 401.782 126.42L400.842 127.196L400.607 126.016ZM404.098 138.435L403.477 139.32C402.688 136.215 401.882 132.583 401.127 129.043C403.091 131.015 407.303 135.097 411.465 138.528L412.103 138.978L412.422 143.278L404.098 138.435ZM425.915 151.117L415.073 144.815L414.738 140.53C417.523 142.083 421.736 144.116 426.77 146.507L425.915 151.117ZM427.207 144.116C421.367 141.322 416.835 139.056 414.519 137.69L413.932 130.083C418.631 132.567 424.001 135.253 428.449 137.441L427.207 144.116ZM442.093 151.024C437.578 148.975 433.349 147.003 429.556 145.218L430.781 138.59C433.685 140.003 436.001 141.105 437.125 141.695C438.249 142.284 441.321 143.402 445.6 145.017L442.093 151.024ZM456.811 157.683C452.581 155.79 448.42 153.896 444.341 152.048L447.933 145.839L461.711 150.977L456.811 157.683ZM471.226 164.094L459.093 158.708L464.128 151.862L478.241 157.047L471.226 164.094Z" fill="#4E8397"/>
</g>
<path d="M353.466 119.109C353.466 119.109 336.314 124.852 330.474 127.212C324.634 129.571 306.039 131.605 303.119 133.297C300.199 134.989 227.599 209.235 229.043 210.586C230.486 211.936 246.916 212.604 251.665 211.595C256.414 210.586 315.521 157.59 315.521 157.59C315.521 157.59 323.191 157.932 323.191 163.334C323.191 168.736 326.833 227.459 326.833 227.459L402.352 226.109L402.722 154.889C402.722 154.889 403.443 147.811 409.283 148.137C415.124 148.463 477.537 169.077 477.537 169.077L495.359 154.889C495.359 154.889 432.225 132.272 420.175 125.194C408.126 118.115 404.853 110.68 400.036 110.68C395.22 110.68 353.466 119.109 353.466 119.109Z" stroke="#263238" stroke-miterlimit="10"/>
<path d="M365.616 184.6C366.69 193.542 366.975 210.989 366.975 210.989" stroke="#263238" stroke-miterlimit="10"/>
<path d="M364.845 179.943C363.166 169.558 360.045 133.033 360.045 133.033" stroke="#263238" stroke-miterlimit="10"/>
<path d="M406.934 148.121L425.747 142.983" stroke="#263238" stroke-linecap="round" stroke-linejoin="round"/>
<path d="M428.298 142.191L434.289 141.012" stroke="#263238" stroke-linecap="round" stroke-linejoin="round"/>
<path d="M411.633 146.941H436.001" stroke="#263238" stroke-linecap="round" stroke-linejoin="round"/>
<path d="M293.721 150.9L315.521 157.59L303.556 157.606" stroke="#263238" stroke-linecap="round" stroke-linejoin="round"/>
<path d="M299.713 158.009H294.158" stroke="#263238" stroke-linecap="round" stroke-linejoin="round"/>
<path d="M366.774 140.018C366.774 141.011 366.203 141.803 365.499 141.803C364.794 141.803 364.223 141.011 364.223 140.018C364.223 139.025 364.794 138.248 365.499 138.248C366.203 138.248 366.774 139.04 366.774 140.018Z" stroke="#263238" stroke-linecap="round" stroke-linejoin="round"/>
<path d="M368.922 159.189C368.922 160.167 368.335 160.974 367.63 160.974C366.925 160.974 366.354 160.167 366.354 159.189C366.354 158.211 366.925 157.419 367.63 157.419C368.335 157.419 368.922 158.211 368.922 159.189Z" stroke="#263238" stroke-linecap="round" stroke-linejoin="round"/>
<path d="M370.198 182.706C370.902 182.706 371.473 181.907 371.473 180.921C371.473 179.935 370.902 179.136 370.198 179.136C369.493 179.136 368.922 179.935 368.922 180.921C368.922 181.907 369.493 182.706 370.198 182.706Z" stroke="#263238" stroke-linecap="round" stroke-linejoin="round"/>
<path d="M371.909 201.474C371.909 202.452 371.339 203.259 370.634 203.259C369.929 203.259 369.342 202.452 369.342 201.474C369.342 200.496 369.912 199.704 370.634 199.704C371.356 199.704 371.909 200.496 371.909 201.474Z" stroke="#263238" stroke-linecap="round" stroke-linejoin="round"/>
<path d="M345.477 115.926L343.497 117.137C341.596 118.322 340.04 119.921 338.966 121.794L334.519 129.478L346.266 138.885L355.614 126.467L373.084 136.976L379.562 123.44L375.45 117.96C374.688 116.949 373.688 116.112 372.525 115.509C371.362 114.907 370.068 114.556 368.737 114.483C361.571 114.002 347.29 113.412 345.477 115.926Z" fill="white" stroke="#263238" stroke-miterlimit="10"/>
<path d="M343.615 105.619C343.615 105.619 344.354 123.502 346.535 124.247C348.717 124.992 354.926 129.307 358.585 129.307C362.243 129.307 367.345 122.555 367.698 121.546C368.05 120.537 366.238 103.306 366.238 103.306L345.075 105.34L343.615 105.619Z" fill="white"/>
<g style="mix-blend-mode:multiply" opacity="0.5">
<path d="M366.238 103.244L345.075 105.278L343.615 105.619C343.615 105.619 343.85 111.409 344.471 116.485C348.786 117.266 353.19 117.532 357.578 117.277C360.938 117.152 364.259 116.561 367.429 115.523C366.976 110.245 366.238 103.244 366.238 103.244Z" fill="#4E8397"/>
</g>
<path d="M343.615 105.619C343.615 105.619 344.354 123.502 346.535 124.247C348.717 124.992 354.926 129.307 358.585 129.307C362.243 129.307 367.345 122.555 367.698 121.546C368.05 120.537 366.238 103.306 366.238 103.306L345.075 105.34L343.615 105.619Z" stroke="#263238" stroke-miterlimit="10"/>
<path d="M327.537 76.5911C327.537 76.5911 323.526 68.8296 317.686 71.9342C311.846 75.0388 320.254 85.0977 325.356 87.4572C330.457 89.8167 332.656 89.4752 332.656 89.4752L327.537 76.5911Z" fill="white" stroke="#263238" stroke-miterlimit="10"/>
<path d="M376.441 74.5265C376.441 74.5265 378.035 66.0509 384.547 67.5101C391.058 68.9692 385.923 80.8288 381.694 84.3836C377.465 87.9384 375.266 88.1557 375.266 88.1557L376.441 74.5265Z" fill="white" stroke="#263238" stroke-miterlimit="10"/>
<path d="M325.742 74.899C325.742 74.899 325.876 75.3026 326.145 76.0166C327.706 80.332 333.395 95.9637 335.593 100.853C338.144 106.597 347.995 113.008 361.136 110.99C374.276 108.972 377.918 94.784 377.918 89.382C377.918 83.98 374.998 42.1299 374.998 42.1299C374.998 42.1299 359.306 27.2744 346.468 22.5554C333.63 17.8364 327.487 23.2229 322.755 31.3259C318.022 39.4289 315.455 44.1479 316.915 49.5499C318.375 54.9519 325.742 74.899 325.742 74.899Z" fill="white"/>
<g style="mix-blend-mode:multiply" opacity="0.5">
<path d="M330.894 52.7631C335.811 47.7182 335.811 37.6282 335.811 37.6282C343.714 42.6008 352.343 46.5054 361.438 49.2239C366.062 50.4475 370.843 51.0897 375.652 51.1332C375.283 45.8399 375.031 42.1609 375.031 42.1609C375.031 42.1609 359.34 27.3054 346.501 22.5864C333.663 17.8674 327.521 23.2539 322.788 31.3569C318.055 39.4599 315.488 44.1789 316.948 49.5809C317.602 52.0336 319.465 57.4666 321.311 62.6824C322.285 61.6889 326.531 57.2182 330.894 52.7631Z" fill="#4E8397"/>
</g>
<g style="mix-blend-mode:multiply" opacity="0.5">
<path d="M371.759 97.6712C366.304 105.743 359.759 108.77 348.868 105.743C339.033 103.011 331.867 90.4685 330.542 88.0004C332.455 93.1385 334.469 98.4008 335.576 100.9C338.127 106.644 347.978 113.055 361.119 111.037C374.259 109.019 377.901 94.8305 377.901 89.4285C377.901 87.6278 377.582 81.667 377.146 74.6971" fill="#4E8397"/>
</g>
<path d="M325.742 74.899C325.742 74.899 325.876 75.3026 326.145 76.0166C327.706 80.332 333.395 95.9637 335.593 100.853C338.144 106.597 347.995 113.008 361.136 110.99C374.276 108.972 377.918 94.784 377.918 89.382C377.918 83.98 374.998 42.1299 374.998 42.1299C374.998 42.1299 359.306 27.2744 346.468 22.5554C333.63 17.8364 327.487 23.2229 322.755 31.3259C318.022 39.4289 315.455 44.1479 316.915 49.5499C318.375 54.9519 325.742 74.899 325.742 74.899Z" stroke="#263238" stroke-miterlimit="10"/>
<path d="M338.127 57.0011C338.311 58.3827 337.724 59.5934 336.818 59.6866C335.912 59.7797 335.039 58.7397 334.871 57.3581C334.703 55.9766 335.274 54.7658 336.18 54.6571C337.086 54.5485 337.959 55.6196 338.127 57.0011Z" fill="#263238"/>
<path d="M363.67 54.3C363.854 55.697 363.267 56.8923 362.361 56.9854C361.455 57.0786 360.599 56.0385 360.414 54.657C360.23 53.2754 360.834 52.0646 361.723 51.9715C362.613 51.8784 363.502 52.9184 363.67 54.3Z" fill="#263238"/>
<path d="M329.383 47.563C329.383 47.563 333.763 41.8195 340.325 43.853" stroke="#263238" stroke-width="2" stroke-linecap="round" stroke-linejoin="round"/>
<path d="M352.744 74.8991L356.386 71.5306L353.835 57.6841" stroke="#263238" stroke-linecap="round" stroke-linejoin="round"/>
<path d="M340.325 79.618C341.101 81.3743 342.412 82.8842 344.098 83.9645C345.784 85.0447 347.774 85.6487 349.824 85.7031" stroke="#263238" stroke-linecap="round" stroke-linejoin="round"/>
<path d="M331.582 28.3145C331.582 28.3145 335.962 36.076 333.042 40.469C330.122 44.862 325.003 45.871 322.821 48.2305C320.64 50.59 321.361 62.077 322.821 65.104C324.066 68.2945 325.043 71.5693 325.742 74.8991C325.742 74.8991 316.612 60.0435 313.994 55.666C311.376 51.2885 304.865 36.076 310.638 27.7246C316.411 19.3732 322.687 25.6911 324.869 20.9721C327.051 16.2531 327.789 6.79956 346.031 2.06504C364.273 -2.66948 373.403 6.72195 375.954 12.2016C378.505 17.6812 387.701 21.9811 394.565 20.2891C401.429 18.5971 396.764 16.5791 396.764 16.5791C396.764 16.5791 404.786 16.5791 402.956 27.0416C401.127 37.5041 391.293 44.2566 377.414 44.5981C363.535 44.9396 341.433 41.478 331.582 28.3145Z" fill="#263238" stroke="#263238" stroke-miterlimit="10"/>
<path d="M330.021 22.3071C330.021 22.3071 346.501 8.8486 356.067 9.19011C365.633 9.53161 370.617 24.7131 382.113 24.4182" stroke="white" stroke-width="0.5" stroke-miterlimit="10"/>
<path d="M326.581 24.4337L332.707 29.4011C332.707 29.4011 341.903 20.8945 353.785 24.7442C365.667 28.5939 376.391 41.0433 387.5 39.9878C398.61 38.9322 402.437 28.2834 400.926 22.2605" stroke="white" stroke-width="0.5" stroke-miterlimit="10"/>
<path d="M327.336 26.9173C327.336 26.9173 320.439 25.1477 317.384 30.4565C314.33 35.7654 318.139 43.2165 318.139 43.2165" stroke="white" stroke-width="0.5" stroke-miterlimit="10"/>
<path d="M332.706 29.37C332.706 29.37 328.494 29.727 328.494 35.0359C328.494 40.3448 327.336 43.8995 323.123 45.6692C318.911 47.4388 317.384 48.8669 318.911 50.9936" stroke="white" stroke-width="0.5" stroke-miterlimit="10"/>
<path d="M386.275 50.6676C384.915 47.237 379.377 46.0106 374.124 45.3742C368.872 44.7378 355.815 48.3236 353.549 48.9445C352.003 48.3188 350.315 48.0538 348.632 48.1729C346.95 48.292 345.325 48.7915 343.9 49.6275C340.812 49.6275 327.839 49.5033 323.325 51.335C318.475 53.322 313.474 55.8212 313.171 59.4691C312.953 62.2167 315.689 63.7379 317.954 64.3744C319.012 68.814 322.888 75.6596 331.733 75.2405C342.91 74.7438 347.692 68.8295 347.424 63.5206C347.256 60.2608 346.501 54.331 346.182 51.9715C347.119 51.4952 348.164 51.2327 349.233 51.2057C350.301 51.1787 351.361 51.388 352.324 51.8163C352.71 54.2378 353.7 60.0124 354.472 63.1481C355.765 68.3172 362.108 72.8189 372.933 70.506C381.542 68.6587 383.287 61.1145 383.002 56.5353C385.167 55.4021 387.366 53.2599 386.275 50.6676ZM331.565 72.1669C322.687 72.555 321.143 63.2722 321.076 62.8531C321.025 62.5315 320.867 62.2327 320.623 61.9987C320.379 61.7648 320.062 61.6076 319.716 61.5492C318.877 61.4095 316.444 60.6644 316.528 59.6709C316.645 58.1186 319.398 56.3024 324.684 54.1447C327.958 53.2779 331.348 52.839 334.753 52.8408C337.741 52.7011 340.728 52.67 342.859 52.6855C343.195 55.2158 343.883 60.6954 344.034 63.6758C344.319 66.4389 341.852 71.7168 331.632 72.1669H331.565ZM380.586 54.331C380.279 54.4718 380.026 54.6959 379.861 54.9734C379.696 55.2508 379.627 55.5683 379.663 55.8833C379.663 56.2869 380.938 65.6007 372.278 67.4479C362.31 69.5591 358.433 65.0884 357.762 62.4185C357.09 59.7485 356.084 54.0671 355.698 51.5524C357.728 51.0091 360.615 50.295 363.535 49.6741C366.81 48.8141 370.2 48.3856 373.604 48.4012C379.327 49.1618 382.499 50.264 383.069 51.6766C383.556 52.6545 381.441 53.974 380.653 54.331H380.586Z" fill="#263238"/>
<path d="M270.864 397.716L288.015 426.123L291.707 404.391C291.707 404.391 277.56 397.064 270.864 397.716Z" fill="#4E8397" stroke="#263238" stroke-miterlimit="10"/>
<path d="M373.907 410.398C373.907 410.398 365.885 414.45 363.317 418.16C360.749 421.87 356.755 423.22 360.397 427.939C364.798 433.974 367.887 440.744 369.493 447.871C370.953 454.965 376.793 460.693 383.003 465.086C389.212 469.479 399.046 470.488 400.137 465.427C401.228 460.367 387.735 439.768 386.711 436.058C385.749 432.762 385.498 429.322 385.973 425.937C386.275 422.211 380.116 408.38 373.907 410.398Z" fill="#263238" stroke="#263238" stroke-miterlimit="10"/>
<path d="M400.154 465.567C398.761 466.234 397.236 466.63 395.672 466.732C394.108 466.833 392.537 466.638 391.058 466.157C380.838 463.456 376.088 452.326 370.919 440.171C368.149 433.745 364.408 427.714 359.809 422.258C358.652 423.81 358.299 425.362 360.33 428.017C364.744 434.024 367.856 440.767 369.493 447.871C370.953 454.965 376.793 460.693 383.002 465.086C389.212 469.479 398.962 470.472 400.154 465.567Z" fill="white" stroke="#263238" stroke-miterlimit="10"/>
<path d="M381.928 403.987C381.928 403.987 369.895 411.081 369.526 414.45C369.157 417.818 372.446 428.296 373.906 429.973C375.366 431.649 379.747 424.229 381.207 426.247L384.848 431.323L386.308 422.196L381.928 403.987Z" fill="white" stroke="#263238" stroke-miterlimit="10"/>
<path d="M287.646 402.435L283.635 453.055L306.979 482.766L308.809 414.589L287.646 402.435Z" fill="white"/>
<g style="mix-blend-mode:multiply" opacity="0.5">
<path d="M286.001 423.189L290.684 423.453C296.978 423.994 303.051 425.881 308.422 428.964L308.808 414.589L287.646 402.435L286.001 423.189Z" fill="#4E8397"/>
</g>
<path d="M287.646 402.435L283.635 453.055L306.979 482.766L308.809 414.589L287.646 402.435Z" stroke="#263238" stroke-miterlimit="10"/>
<path d="M307.953 446.551C301.832 440.727 293.695 437.074 284.961 436.228L283.635 453.148L306.979 482.844L307.953 446.551Z" fill="white" stroke="#263238" stroke-miterlimit="10"/>
<path d="M307.399 496.271C307.399 496.271 309.228 486.135 307.399 479.056C305.57 471.978 293.167 452.667 281.118 440.916C269.068 429.165 252.303 405.803 241.713 396.365C231.124 386.927 218 389.271 218 405.136C218 421 228.573 448.336 244.264 462.85C259.956 477.364 282.225 493.508 287.999 496.271C293.772 499.034 300.417 501.27 307.399 496.271Z" fill="#263238" stroke="#263238" stroke-miterlimit="10"/>
<path d="M308.154 487.299C303.167 481.016 297.265 475.401 290.617 470.612C277.107 460.491 266.887 437.874 260.694 423.701C256.851 414.931 248.007 403.723 241.797 396.443V396.365C231.208 386.912 218.084 389.271 218.084 405.136C218.084 421 228.657 448.336 244.348 462.85C260.039 477.364 282.226 493.508 287.999 496.271C293.772 499.035 300.417 501.332 307.349 496.271C307.835 493.301 308.104 490.303 308.154 487.299Z" fill="white" stroke="#263238" stroke-miterlimit="10"/>
<path d="M307.6 494.579C302.867 487.858 293.906 479.631 283.266 470.612C266.114 456.098 251.883 411.888 239.112 398.383C231.325 390.156 223.689 394.208 218.973 398.632C218.31 400.744 217.987 402.936 218.016 405.136C218.016 421 228.589 448.336 244.281 462.85C259.972 477.364 282.225 493.508 287.998 496.271C293.771 499.034 300.417 501.332 307.348 496.271C307.398 496.271 307.398 495.635 307.6 494.579Z" fill="white" stroke="#263238" stroke-miterlimit="10"/>
<path d="M319.532 264.59L323.912 221.731C323.912 221.731 356.386 213.287 372.446 214.979C383.968 216.427 395.333 218.796 406.414 222.057C406.414 222.057 412.623 278.095 419.839 305.431C427.056 332.768 430.412 373.283 430.781 388.464C431.151 403.646 420.192 409.048 417.272 412.432C414.352 415.816 395.757 436.399 395.757 436.399C395.757 436.399 384.009 429.647 380.418 418.843C376.827 408.039 378.958 403.661 378.958 403.661L406.414 384.413C406.414 384.413 395.102 322.647 386.275 308.8C377.448 294.953 370.953 289.567 361.471 287.207C351.989 284.848 351.62 285.857 339.57 293.277C331.97 298.038 324.883 303.465 318.408 309.483L309.53 423.655C309.53 423.655 296.104 411.842 287.277 406.44C282.015 403.193 276.533 400.263 270.864 397.669C270.864 397.669 285.599 295.217 292.899 289.52C300.199 283.823 319.532 264.59 319.532 264.59Z" fill="#4E8397"/>
<g style="mix-blend-mode:multiply" opacity="0.2">
<path d="M430.798 390.032C426.636 390.032 420.124 390.327 415.962 381.354C409.451 367.306 403.678 326.512 393.541 306.44C383.405 286.369 363.165 268.968 352.324 268.968C341.483 268.968 366.069 283.684 366.069 283.684C366.069 283.684 356.654 279.679 354.489 279.679C352.324 279.679 325.557 293.059 316.88 297.732C308.204 302.404 309.647 306.44 306.811 318.471C304.344 328.716 302.934 397.405 302.565 417.818C306.609 421.124 309.58 423.732 309.58 423.732L318.491 309.514C324.948 303.482 332.018 298.039 339.603 293.261C351.653 285.841 352.005 284.832 361.504 287.192C371.003 289.551 377.548 294.953 386.308 308.784C395.068 322.615 406.447 384.397 406.447 384.397L379.075 403.645C379.075 403.645 376.893 408.023 380.535 418.827C384.177 429.631 395.874 436.384 395.874 436.384C395.874 436.384 414.469 415.784 417.389 412.416C420.309 409.048 430.395 404.003 430.798 390.032Z" fill="#263238"/>
</g>
<path d="M319.532 264.59L323.912 221.731C323.912 221.731 356.386 213.287 372.446 214.979C383.968 216.427 395.333 218.796 406.414 222.057C406.414 222.057 412.623 278.095 419.839 305.431C427.056 332.768 430.412 373.283 430.781 388.464C431.151 403.646 420.192 409.048 417.272 412.432C414.352 415.816 395.757 436.399 395.757 436.399C395.757 436.399 384.009 429.647 380.418 418.843C376.827 408.039 378.958 403.661 378.958 403.661L406.414 384.413C406.414 384.413 395.102 322.647 386.275 308.8C377.448 294.953 370.953 289.567 361.471 287.207C351.989 284.848 351.62 285.857 339.57 293.277C331.97 298.038 324.883 303.465 318.408 309.483L309.53 423.655C309.53 423.655 296.104 411.842 287.277 406.44C282.015 403.193 276.533 400.263 270.864 397.669C270.864 397.669 285.599 295.217 292.899 289.52C300.199 283.823 319.532 264.59 319.532 264.59Z" stroke="#263238" stroke-miterlimit="10"/>
<path d="M406.414 384.413C406.414 384.413 408.696 398.383 409.77 400.494" stroke="#263238" stroke-miterlimit="10"/>
<path d="M366.355 218.471L363.368 261.144C365.637 260.654 367.709 259.577 369.342 258.04C371.473 255.665 373.622 237.084 373.622 237.084" stroke="#263238" stroke-linecap="round" stroke-linejoin="round"/>
<path d="M340.711 221.623L352.677 220.055L353.533 217.276" stroke="#263238" stroke-linecap="round" stroke-linejoin="round"/>
<path d="M378.32 217.68L377.464 220.055L371.053 219.651" stroke="#263238" stroke-linecap="round" stroke-linejoin="round"/>
<path d="M382.583 217.68L382.164 220.847L391.981 222.818" stroke="#263238" stroke-linecap="round" stroke-linejoin="round"/>
<path d="M324.919 262.34C324.919 262.34 334.317 261.548 344.135 272.6" stroke="#263238" stroke-linecap="round" stroke-linejoin="round"/>
<path d="M340.292 265.894C340.292 265.894 342.423 265.894 347.978 273.795" stroke="#263238" stroke-linecap="round" stroke-linejoin="round"/>
<path d="M318.811 175.147C318.811 175.147 324.634 170.49 326.832 168.394C329.031 166.299 329.753 161.3 332.303 164.343C334.854 167.385 334.854 171.095 333.042 172.104C331.229 173.113 326.832 175.209 325.742 176.497C324.651 177.786 315.89 178.515 318.811 175.147Z" fill="white" stroke="#263238" stroke-miterlimit="10"/>
<path d="M405.323 152.235C405.323 152.235 398.224 149.332 395.471 147.997C392.719 146.662 390.437 142.036 388.943 145.653C387.45 149.27 388.691 152.794 390.756 153.259C392.82 153.725 397.653 154.439 399.147 155.432C400.64 156.426 409.199 154.656 405.323 152.235Z" fill="white" stroke="#263238" stroke-miterlimit="10"/>
<path d="M322.822 129.245L324.282 177.506L330.844 222.399L337.053 221.39L329.384 176.156L329.014 127.895L322.822 129.245Z" fill="#263238" stroke="#263238" stroke-miterlimit="10"/>
<path d="M384.849 113.039C384.849 113.039 396.16 150.17 397.267 154.563C398.375 158.956 401.278 183.25 402 185.609C402.722 187.969 397.267 223.408 397.267 223.408L403.46 224.758L407.84 181.899L402.806 154.889L391.494 112.372L384.849 113.039Z" fill="#263238" stroke="#263238" stroke-miterlimit="10"/>
<path d="M335.66 213.24L332.941 211.02L330.055 215.134L330.843 222.399L337.053 221.39L335.66 213.24Z" fill="white" stroke="#263238" stroke-miterlimit="10"/>
<path d="M404.248 217.199L402.688 213.085L398.408 215.817C397.754 220.303 397.267 223.47 397.267 223.47L403.46 224.82L404.248 217.199Z" fill="white" stroke="#263238" stroke-miterlimit="10"/>
<path d="M358.937 130.937C358.937 130.937 338.513 120.071 337.775 123.517C337.037 126.963 338.144 144.442 340.326 143.697C342.508 142.952 359.307 134.275 359.307 134.275C359.307 134.275 380.838 145.389 381.207 139.987C381.577 134.585 380.469 120.413 375.367 120.071C370.265 119.729 358.937 130.937 358.937 130.937Z" fill="#263238" stroke="#263238" stroke-miterlimit="10"/>
<path d="M362.344 132.117L373 127.631" stroke="white" stroke-width="0.5" stroke-linecap="round" stroke-linejoin="round"/>
<path d="M362.344 132.117L372.027 134.212" stroke="white" stroke-width="0.5" stroke-linecap="round" stroke-linejoin="round"/>
<path d="M348.129 130.021L356.537 132.707L348.465 135.097" stroke="white" stroke-width="0.5" stroke-linecap="round" stroke-linejoin="round"/>
<path d="M361.706 129.726C361.706 129.726 362.344 133.607 361.706 134.507C361.068 135.408 358.467 135.097 357.494 133.902" stroke="white" stroke-width="0.5" stroke-linecap="round" stroke-linejoin="round"/>
<path d="M440.229 171.84C440.229 171.84 434.507 169.605 438.551 165.941C442.596 162.278 485.206 153.523 493.278 153.663C501.35 153.802 505.865 159.22 507.576 165.445C509.288 171.669 505.361 178.112 496.869 181.278C488.378 184.445 452.044 188.916 446.405 188.077C440.766 187.239 440.229 171.84 440.229 171.84Z" fill="white"/>
<g style="mix-blend-mode:multiply">
<path d="M507.711 165.74L504.959 166.283C504.455 163.535 503.901 160.772 503.28 158.04H503.599C502.579 156.945 501.357 156.026 499.991 155.324C500.075 155.681 500.192 156.053 500.276 156.426L487.505 159.422C486.934 157.73 486.263 156.115 485.558 154.532L483.024 154.92C483.763 156.472 484.451 158.227 485.072 159.996L468.021 164.017C467.138 162.073 466.118 160.186 464.967 158.366L462.348 158.941C463.552 160.754 464.607 162.648 465.504 164.607L452.078 167.711C450.959 165.828 449.638 164.055 448.134 162.418C447.244 162.666 446.456 162.899 445.617 163.147C447.167 164.714 448.528 166.432 449.678 168.27L447.513 168.767C444.885 169.339 442.408 170.395 440.229 171.871C440.229 172.12 440.23 173.222 440.464 174.743C442.634 172.902 445.273 171.599 448.134 170.955L450.869 170.319C451.834 172.217 452.576 174.205 453.085 176.249L441.035 178.577C441.169 179.343 441.337 180.104 441.539 180.859L453.555 178.546C453.876 180.545 454.005 182.565 453.941 184.585L443.72 186.137C444.008 186.619 444.402 187.041 444.876 187.375C445.35 187.709 445.893 187.948 446.472 188.077L453.773 186.991C453.773 187.317 453.689 187.627 453.655 187.953L456.189 187.751C456.189 187.379 456.273 186.991 456.307 186.618L469.934 184.6V186.261L472.552 185.92C472.552 185.345 472.552 184.771 472.552 184.197L487.841 181.93C487.841 182.458 487.74 182.986 487.69 183.483L490.324 183.048C490.324 182.567 490.425 182.085 490.459 181.604L499.353 180.269C500.994 179.468 502.503 178.454 503.834 177.258L490.559 179.229C490.625 176.664 490.518 174.098 490.241 171.545L502.928 169.093C503.381 171.763 503.75 174.417 504.069 177.009C504.908 176.219 505.64 175.338 506.251 174.386C505.999 172.477 505.714 170.567 505.395 168.627L508.063 168.115C508.041 167.313 507.923 166.517 507.711 165.74ZM453.236 169.791L466.376 166.687C467.224 168.844 467.908 171.054 468.424 173.299L455.468 175.799C454.946 173.731 454.198 171.719 453.236 169.791ZM456.441 184.243C456.478 182.164 456.315 180.086 455.954 178.034L468.91 175.535C469.335 177.734 469.638 179.951 469.817 182.179L456.441 184.243ZM468.894 166.128L485.676 162.154C486.411 164.617 486.971 167.121 487.354 169.652L470.924 172.756C470.4 170.509 469.722 168.295 468.894 166.128ZM472.418 181.868C472.233 179.604 471.925 177.351 471.495 175.116L487.74 172.011C487.994 174.529 488.078 177.059 487.992 179.586L472.418 181.868ZM489.888 169.186C489.505 166.62 488.945 164.079 488.21 161.58L500.847 158.615C501.485 161.316 502.044 164.027 502.525 166.749L489.888 169.186Z" fill="#4E8397"/>
</g>
<path d="M440.229 171.84C440.229 171.84 434.507 169.605 438.551 165.941C442.596 162.278 485.206 153.523 493.278 153.663C501.35 153.802 505.865 159.22 507.576 165.445C509.288 171.669 505.361 178.112 496.869 181.278C488.378 184.445 452.044 188.916 446.405 188.077C440.766 187.239 440.229 171.84 440.229 171.84Z" stroke="#263238" stroke-miterlimit="10"/>
<path d="M429.909 171.67L434.004 186.044L445.013 184.6C445.995 182.018 446.048 179.211 445.165 176.598C444.282 173.986 442.51 171.707 440.113 170.102L429.909 171.67Z" fill="white" stroke="#263238" stroke-miterlimit="10"/>
<path d="M429.909 171.67C429.909 171.67 411.633 151.49 409.2 152.188C406.767 152.887 392.535 153.74 390.74 155.386C388.944 157.031 392.569 161.937 392.569 161.937C391.881 163.905 391.415 165.934 391.176 167.991C391.176 170.133 394.532 172.321 394.532 172.321C394.413 174.18 394.531 176.046 394.885 177.879C395.422 179.431 396.345 179.943 396.664 180.983C396.983 182.023 396.445 185.997 399.433 186.898C402.061 187.875 404.934 188.15 407.723 187.689L411.549 186.587C411.549 186.587 420.176 188.326 423.767 187.643C427.358 186.96 433.954 186.09 433.954 186.09L429.909 171.67Z" fill="white"/>
<g style="mix-blend-mode:multiply" opacity="0.5">
<path d="M423.749 187.565C425.679 187.208 428.449 186.789 430.613 186.494C427.408 186.82 422.625 187.037 419.722 185.842C415.04 183.917 409.334 181.045 403.611 182.955C401.558 183.638 399.556 184.447 397.62 185.376C397.801 185.715 398.053 186.017 398.361 186.265C398.669 186.512 399.028 186.701 399.415 186.82C402.044 187.798 404.917 188.072 407.706 187.612L411.532 186.51C411.532 186.51 420.158 188.248 423.749 187.565Z" fill="#4E8397"/>
</g>
<path d="M429.909 171.67C429.909 171.67 411.633 151.49 409.2 152.188C406.767 152.887 392.535 153.74 390.74 155.386C388.944 157.031 392.569 161.937 392.569 161.937C391.881 163.905 391.415 165.934 391.176 167.991C391.176 170.133 394.532 172.321 394.532 172.321C394.413 174.18 394.531 176.046 394.885 177.879C395.422 179.431 396.345 179.943 396.664 180.983C396.983 182.023 396.445 185.997 399.433 186.898C402.061 187.875 404.934 188.15 407.723 187.689L411.549 186.587C411.549 186.587 420.176 188.326 423.767 187.643C427.358 186.96 433.954 186.09 433.954 186.09L429.909 171.67Z" stroke="#263238" stroke-miterlimit="10"/>
<path d="M392.535 161.937L409.065 161.052" stroke="#263238" stroke-miterlimit="10"/>
<path d="M394.515 172.321L410.928 171.126" stroke="#263238" stroke-miterlimit="10"/>
<path d="M396.646 180.906L410.542 179.012" stroke="#263238" stroke-miterlimit="10"/>
<path d="M291.808 203.492C291.808 203.492 296.541 199.782 291.439 197.422C286.337 195.063 242.905 198.431 235.236 200.791C227.566 203.15 225.015 209.577 225.385 215.988C225.754 222.399 231.594 227.459 240.707 228.142C249.819 228.825 286.019 223.082 291.053 220.707C296.088 218.332 291.808 203.492 291.808 203.492Z" fill="white"/>
<g style="mix-blend-mode:multiply">
<path d="M292.294 219.729C292.85 218.969 293.217 218.105 293.369 217.199L279.943 219.279C279.943 217.525 279.943 215.77 280.178 214.047L293.603 212.262C293.603 211.486 293.436 210.71 293.335 209.949L280.48 211.657C280.759 209.647 281.225 207.663 281.873 205.727L292.311 204.873C292.11 204.02 291.959 203.492 291.959 203.492C292.332 203.189 292.669 202.851 292.966 202.483L282.896 203.306C283.992 200.794 285.718 198.559 287.931 196.786C286.924 196.786 285.733 196.662 284.44 196.646C282.502 198.661 280.998 201.001 280.01 203.538L266.4 204.64C267.349 202.004 268.545 199.448 269.974 197.003L267.054 197.174C265.697 199.667 264.574 202.264 263.698 204.935L248.896 206.146C249.351 203.572 250.018 201.035 250.893 198.555L248.157 198.85C247.355 201.306 246.744 203.812 246.328 206.348L235.185 207.264C236.036 204.776 237.179 202.382 238.591 200.123C237.508 200.294 236.438 200.528 235.386 200.822C234.205 202.939 233.239 205.153 232.499 207.435L226.844 207.885C226.488 208.665 226.196 209.47 225.971 210.291L231.811 209.81C231.147 212.569 230.927 215.404 231.157 218.223L226.022 218.922C226.285 219.688 226.633 220.427 227.062 221.126L231.459 220.536C231.836 222.538 232.449 224.495 233.288 226.373C235.097 227.148 237.02 227.672 238.994 227.925L246.311 226.807C246.311 227.211 246.445 227.615 246.513 228.018L249.013 227.832L248.661 226.512L262.674 224.355C262.842 224.976 263.06 225.612 263.261 226.233L265.779 225.876C265.56 225.24 265.342 224.603 265.174 223.967L277.241 222.104C277.241 222.74 277.241 223.361 277.341 223.982C278.214 223.827 279.02 223.672 279.892 223.501C279.892 222.911 279.892 222.321 279.892 221.716L292.294 219.729ZM234.362 209.577L245.892 208.645C245.581 211.186 245.435 213.742 245.455 216.298L233.624 217.851C233.375 215.077 233.601 212.285 234.295 209.577H234.362ZM235.906 226.062C234.99 224.183 234.325 222.207 233.926 220.179L245.522 218.627C245.522 220.629 245.774 222.585 246.009 224.494L235.906 226.062ZM248.476 224.122C248.241 222.228 248.073 220.303 247.989 218.316L261.717 216.485C261.738 218.332 261.923 220.175 262.271 221.995L248.476 224.122ZM261.768 214.125L247.956 215.972C247.955 213.451 248.112 210.932 248.426 208.428L262.892 207.264C262.269 209.502 261.87 211.788 261.701 214.094L261.768 214.125ZM277.19 219.682L264.637 221.607C264.287 219.809 264.107 217.986 264.1 216.159L277.392 214.389C277.291 216.143 277.19 217.913 277.19 219.682ZM277.66 211.998L264.235 213.799C264.407 211.518 264.811 209.257 265.443 207.047L278.986 205.944C278.383 207.927 277.956 209.952 277.711 211.998H277.66Z" fill="#4E8397"/>
</g>
<path d="M291.808 203.492C291.808 203.492 296.541 199.782 291.439 197.422C286.337 195.063 242.905 198.431 235.236 200.791C227.566 203.15 225.015 209.577 225.385 215.988C225.754 222.399 231.594 227.459 240.707 228.142C249.819 228.825 286.019 223.082 291.053 220.707C296.088 218.332 291.808 203.492 291.808 203.492Z" stroke="#263238" stroke-miterlimit="10"/>
<path d="M301.659 200.465L302.38 215.305L291.439 216.997C289.668 214.805 288.711 212.142 288.711 209.406C288.711 206.67 289.668 204.007 291.439 201.815L301.659 200.465Z" fill="white" stroke="#263238" stroke-miterlimit="10"/>
<path d="M301.659 200.465C301.659 200.465 312.601 176.156 315.085 176.156C317.569 176.156 331.515 173.051 333.696 174.138C335.878 175.224 334.066 180.89 334.066 180.89C335.382 182.574 336.507 184.379 337.422 186.277C338.144 188.31 335.593 191.353 335.593 191.353C336.304 193.095 336.794 194.908 337.053 196.755C337.053 198.431 336.314 199.114 336.314 200.123C336.314 201.132 338.144 204.78 335.593 206.534C333.4 208.212 330.743 209.287 327.923 209.639H323.912C323.912 209.639 316.243 213.69 312.601 214.016C308.959 214.342 302.381 215.367 302.381 215.367L301.659 200.465Z" fill="white"/>
<g style="mix-blend-mode:multiply" opacity="0.5">
<path d="M323.912 209.577H327.923C330.743 209.225 333.4 208.15 335.593 206.472C336.168 206.018 336.593 205.424 336.819 204.756C337.044 204.089 337.061 203.376 336.868 202.7C334.57 204.05 332.021 204.993 329.35 205.479C323.627 206.441 317.401 206.922 312.198 209.313C308.837 211.011 305.646 212.986 302.666 215.212C303.975 215.01 309.379 214.187 312.601 213.892C316.243 213.628 323.912 209.577 323.912 209.577Z" fill="#4E8397"/>
</g>
<path d="M301.659 200.465C301.659 200.465 312.601 176.156 315.085 176.156C317.569 176.156 331.515 173.051 333.696 174.138C335.878 175.224 334.066 180.89 334.066 180.89C335.382 182.574 336.507 184.379 337.422 186.277C338.144 188.31 335.593 191.353 335.593 191.353C336.304 193.095 336.794 194.908 337.053 196.755C337.053 198.431 336.314 199.114 336.314 200.123C336.314 201.132 338.144 204.78 335.593 206.534C333.4 208.212 330.743 209.287 327.923 209.639H323.912C323.912 209.639 316.243 213.69 312.601 214.016C308.959 214.342 302.381 215.367 302.381 215.367L301.659 200.465Z" stroke="#263238" stroke-miterlimit="10"/>
<path d="M334.133 180.89L318.072 184.6" stroke="#263238" stroke-miterlimit="10"/>
<path d="M335.593 191.353L319.532 194.721" stroke="#263238" stroke-miterlimit="10"/>
<path d="M336.315 200.123L322.453 202.141" stroke="#263238" stroke-miterlimit="10"/>
</svg>
