<svg width="601" height="548" viewBox="0 0 601 548" fill="none" xmlns="http://www.w3.org/2000/svg">
<path d="M532.749 393.168L582.871 355.392L526.208 383.718L558.898 327.789L515.316 377.911L527.157 320.982L532.749 322.247L527.752 318.06L530.282 305.662L573.433 310.609L517.492 292.442L574.876 282.322H510.18L560.302 244.546L503.639 272.884L529.244 229.062L555.267 235.109L535.481 218.448L536.392 216.892L535.228 218.233L532.698 216.171L587.906 222.496C588.109 222.534 588.319 222.491 588.491 222.376C588.664 222.262 588.785 222.085 588.829 221.883C588.873 221.681 588.837 221.47 588.729 221.294C588.62 221.118 588.448 220.991 588.248 220.94L539.96 205.253L588.336 196.689C588.535 196.653 588.713 196.544 588.836 196.384C588.959 196.224 589.018 196.023 589 195.822C588.983 195.62 588.891 195.433 588.742 195.296C588.593 195.159 588.399 195.083 588.197 195.082H532.749L576.634 162.013C576.802 161.914 576.923 161.752 576.972 161.564C577.021 161.375 576.992 161.175 576.893 161.007C576.794 160.839 576.633 160.718 576.444 160.669C576.256 160.621 576.055 160.649 575.888 160.748L526.208 185.594L555.052 136.256C555.163 136.103 555.208 135.913 555.179 135.727C555.149 135.54 555.046 135.374 554.894 135.263C554.741 135.152 554.551 135.107 554.364 135.136C554.178 135.166 554.011 135.268 553.901 135.421L515.316 179.812L529.371 112.182C529.391 112.05 529.363 111.916 529.293 111.803C529.222 111.69 529.114 111.606 528.987 111.567C528.86 111.527 528.723 111.534 528.601 111.586C528.479 111.639 528.379 111.733 528.321 111.853L502.235 174.727L499.97 115.268C499.97 115.017 499.871 114.775 499.693 114.597C499.515 114.419 499.273 114.319 499.022 114.319C498.77 114.319 498.529 114.419 498.351 114.597C498.173 114.775 498.073 115.017 498.073 115.268L493.519 176.144L467.041 117.457C466.959 117.276 466.812 117.132 466.628 117.055C466.445 116.979 466.239 116.974 466.053 117.043C465.866 117.112 465.713 117.25 465.624 117.428C465.535 117.605 465.517 117.81 465.573 118.001L484.068 182.811L437.83 132.372L476.377 191.54L476.263 193.007L421.03 153.6L467.281 197.435L420.663 175.853C420.623 175.828 420.579 175.811 420.532 175.803C420.486 175.796 420.438 175.797 420.393 175.808C420.347 175.818 420.303 175.838 420.265 175.865C420.227 175.892 420.194 175.927 420.169 175.967C420.145 176.007 420.128 176.051 420.12 176.097C420.112 176.144 420.114 176.191 420.124 176.237C420.135 176.283 420.154 176.326 420.182 176.364C420.209 176.403 420.243 176.435 420.283 176.46L448.95 195.803L450.898 207.265L424.762 203.862C424.656 203.841 424.547 203.864 424.458 203.925C424.369 203.985 424.307 204.079 424.287 204.184C424.267 204.29 424.29 204.399 424.35 204.488C424.411 204.577 424.504 204.638 424.61 204.659L451.758 212.338L453.023 219.485L429.215 223.394L421.624 212.54L455.781 281.55L403.369 247.304L452.151 292.442L398.069 270.303L447.065 296.807L396.323 292.417L445.661 304.068L411.39 311.887L447.116 309.154L423.142 325.132L465.042 313.86L478.553 361.617C478.553 365.412 478.667 370.055 478.73 375.026L437.792 330.369L478.274 392.421L421.042 351.597L474.631 403.364L413.907 370.207L469.507 407.716L419.221 401.176L468.053 414.99L428.949 421.518L469.507 420.076L445.534 436.054L479.084 427.021C479.008 433.347 478.92 440.747 478.831 448.059C478.73 457.092 478.629 465.77 478.565 471.602H464.118C462.997 471.607 461.896 471.901 460.921 472.455C459.946 473.009 459.13 473.804 458.552 474.765L442.991 500.674C441.773 502.721 440.975 504.99 440.645 507.349C440.315 509.709 440.459 512.11 441.069 514.413L447.988 540.157C448.511 542.108 449.661 543.833 451.262 545.066C452.862 546.298 454.824 546.969 456.844 546.976H527.688C529.707 546.963 531.665 546.289 533.265 545.058C534.864 543.827 536.016 542.105 536.544 540.157L543.451 514.413C544.064 512.11 544.21 509.708 543.88 507.349C543.55 504.989 542.75 502.719 541.528 500.674L525.98 474.765C525.403 473.801 524.586 473.002 523.608 472.448C522.63 471.894 521.525 471.603 520.401 471.602H502.69C502.69 458.117 502.842 439.976 502.931 420.999L555.166 433.157L532.647 414.269L595.901 421.531L540.01 403.364L597.407 393.244L532.749 393.168ZM530.117 305.624L525.689 316.302L510.18 303.347L530.117 305.624ZM526.423 228.341L503.007 255.274C502.918 242.522 502.83 230.858 502.766 222.825L526.423 228.341ZM480.121 329.13C479.261 324.841 479.755 316.074 480.261 310.002L492.595 312.886C491.836 315.226 491.608 318.085 491.241 322.855C491.14 324.12 491.039 325.562 490.9 327.156C490.508 331.875 489.761 332.874 488.534 334.519C487.144 336.309 486.027 338.296 485.22 340.414C484.201 344.035 483.536 347.747 483.234 351.496L482.234 349.282C482.078 342.518 481.372 335.779 480.121 329.13ZM488.737 341.78C489.425 339.962 490.38 338.257 491.57 336.72C493.202 334.519 494.227 332.798 494.682 327.396C494.822 325.79 494.923 324.36 495.024 323.07C495.391 318.326 495.593 315.631 496.289 313.67L497.984 314.062L493.519 374.267L486.308 358.252C487.092 350.231 487.94 343.83 488.737 341.818V341.78ZM492.785 266.976L499.11 236.754C499.11 243.623 499.224 251.428 499.275 259.525L492.785 266.976ZM495.201 224.558L479.717 261.929L478.452 229.1L495.201 224.558ZM477.073 192.514L478.262 194.336L477.111 193.513L477.073 192.514ZM473.454 230.466L471 263.358L461.499 233.642L473.454 230.466ZM459.83 228.467L457.894 222.458L469.545 222.041L459.83 228.467ZM449.456 196.094L469.507 209.63L453.061 207.492L449.456 196.094ZM454.908 213.173L468.053 216.892L456.667 218.79L454.908 213.173ZM429.215 223.42L453.542 222.547L455.086 231.643L445.61 237.968L455.731 235.261L461.613 269.937L429.215 223.42ZM476.415 310.773C475.934 316.985 475.542 325.398 476.415 329.863C476.997 332.76 477.452 335.948 477.794 339.339L466.168 313.544L476.415 310.773ZM482.348 471.577C482.348 465.796 482.512 457.092 482.614 448.072C482.702 440.342 482.803 432.486 482.879 425.971L499.186 421.581C499.098 440.33 499.009 458.269 498.946 471.577H482.348ZM503.323 315.391L524.095 320.211L503.26 370.346C503.348 350.104 503.411 333.405 503.411 326.587C503.411 323.728 503.399 319.869 503.374 315.391H503.323Z" fill="#C7C7C7"/>
<path d="M448.823 108.601C475.722 108.601 497.529 86.7952 497.529 59.8959C497.529 32.9966 475.722 11.1904 448.823 11.1904C421.924 11.1904 400.118 32.9966 400.118 59.8959C400.118 86.7952 421.924 108.601 448.823 108.601Z" stroke="#263238" stroke-miterlimit="10" stroke-linecap="round"/>
<path d="M448.823 103.87C473.109 103.87 492.797 84.1821 492.797 59.8959C492.797 35.6097 473.109 15.9218 448.823 15.9218C424.537 15.9218 404.849 35.6097 404.849 59.8959C404.849 84.1821 424.537 103.87 448.823 103.87Z" stroke="#263238" stroke-miterlimit="10" stroke-linecap="round"/>
<path d="M466.269 65.3104L448.823 59.8959L469.482 29.9515" stroke="#263238" stroke-miterlimit="10" stroke-linecap="round"/>
<path d="M448.823 62.3628C450.185 62.3628 451.29 61.2583 451.29 59.8959C451.29 58.5335 450.185 57.429 448.823 57.429C447.46 57.429 446.356 58.5335 446.356 59.8959C446.356 61.2583 447.46 62.3628 448.823 62.3628Z" fill="#263238" stroke="#263238" stroke-miterlimit="10"/>
<path d="M431.808 46.4228C436.734 46.4228 440.727 42.4297 440.727 37.504C440.727 32.5783 436.734 28.5852 431.808 28.5852C426.882 28.5852 422.889 32.5783 422.889 37.504C422.889 42.4297 426.882 46.4228 431.808 46.4228Z" stroke="#263238" stroke-miterlimit="10" stroke-linecap="round"/>
<path d="M435.628 52.9379C435.628 53.3158 435.516 53.6851 435.306 53.9992C435.096 54.3134 434.798 54.5582 434.449 54.7028C434.1 54.8474 433.716 54.8852 433.345 54.8115C432.975 54.7378 432.634 54.5559 432.367 54.2887C432.1 54.0216 431.918 53.6812 431.844 53.3106C431.771 52.9401 431.808 52.556 431.953 52.2069C432.098 51.8579 432.342 51.5595 432.657 51.3496C432.971 51.1397 433.34 51.0277 433.718 51.0277C433.969 51.0277 434.217 51.0771 434.449 51.1731C434.681 51.2691 434.891 51.4098 435.069 51.5872C435.246 51.7646 435.387 51.9752 435.483 52.2069C435.579 52.4387 435.628 52.6871 435.628 52.9379V52.9379Z" stroke="#263238" stroke-miterlimit="10" stroke-linecap="round"/>
<path d="M39.5332 59.2634H290.537V546.356H24.542V59.2634H32.0059" stroke="#263238" stroke-miterlimit="10"/>
<path d="M282.478 69.8015H201.868V535.805H282.478V69.8015Z" stroke="#263238" stroke-miterlimit="10"/>
<path d="M192.646 69.8015H116.652V535.805H192.646V69.8015Z" stroke="#263238" stroke-miterlimit="10"/>
<path d="M107.442 196.55V188.086" stroke="#263238" stroke-miterlimit="10"/>
<path d="M107.443 180.559V69.8015H32.6006V535.805H107.443V206.898" stroke="#263238" stroke-miterlimit="10"/>
<path d="M151.632 546.457V253.895C151.632 252.379 151.931 250.878 152.511 249.477C153.092 248.077 153.943 246.804 155.016 245.733C156.088 244.661 157.362 243.812 158.763 243.233C160.164 242.653 161.666 242.356 163.182 242.358H352.045C355.105 242.358 358.04 243.573 360.204 245.737C362.367 247.901 363.583 250.835 363.583 253.895V546.002" stroke="#263238" stroke-width="4" stroke-linejoin="round"/>
<path d="M375.373 295.643L369.807 291.848C361.742 286.115 355.458 278.222 351.679 269.076L346.985 258.247H339.61L334.967 269.076C331.187 278.222 324.904 286.115 316.838 291.848L311.272 295.643C309.667 296.827 308.37 298.379 307.489 300.169C306.608 301.959 306.17 303.934 306.212 305.928H380.307C380.363 303.945 379.944 301.977 379.086 300.188C378.228 298.399 376.955 296.841 375.373 295.643ZM345.416 301.374H313.574C313.574 297.958 319.027 294.795 321.165 293.062L324.96 289.937C330.716 285.052 335.051 278.707 337.51 271.569L340.723 262.802H345.783L348.997 271.569C351.455 278.71 355.795 285.056 361.559 289.937L365.354 293.062C367.517 294.795 372.856 297.958 372.856 301.374H345.416Z" fill="white" stroke="#263238" stroke-linecap="round" stroke-linejoin="round"/>
<path d="M343.303 258.07V250.125C343.303 250.125 347.845 246.722 347.845 241.801C347.845 236.88 344.05 234.983 339.9 236.501" stroke="#263238" stroke-linecap="round" stroke-linejoin="round"/>
<path d="M322.139 283.65C322.139 283.65 330.577 293.378 341.191 293.543C352.45 293.72 365.682 283.865 365.682 283.865C368.699 286.468 371.986 288.742 375.487 290.646C381.382 293.859 385.266 298.565 388.353 306.725C391.806 315.821 399.409 340.553 399.409 340.553L377.498 341.616L380.497 391.333H307.603L312.537 340.73H291.321C291.321 340.73 298.368 307.307 301.594 300.88C304.82 294.454 322.139 283.65 322.139 283.65Z" fill="white" stroke="#263238" stroke-linecap="round" stroke-linejoin="round"/>
<path d="M312.537 340.68L313.65 314.113" stroke="#263238" stroke-linecap="round" stroke-linejoin="round"/>
<path d="M377.498 341.616L375.778 315.821" stroke="#263238" stroke-linecap="round" stroke-linejoin="round"/>
<path d="M364.025 295.643L358.459 291.848C350.394 286.115 344.11 278.222 340.331 269.076L335.688 258.247H328.312L323.669 269.076C319.894 278.224 313.61 286.118 305.541 291.848L299.975 295.643C298.37 296.827 297.072 298.379 296.192 300.169C295.311 301.959 294.873 303.934 294.914 305.928H369.01C369.06 303.94 368.633 301.97 367.766 300.18C366.899 298.391 365.617 296.835 364.025 295.643ZM334.068 301.374H302.226C302.226 297.958 307.679 294.795 309.817 293.062L313.675 289.937C319.431 285.052 323.766 278.707 326.225 271.569L329.438 262.802H334.499L337.712 271.569C340.17 278.71 344.51 285.056 350.274 289.937L354.069 293.062C356.233 294.795 361.571 297.958 361.571 301.374H334.068Z" fill="white" stroke="#263238" stroke-linecap="round" stroke-linejoin="round"/>
<path d="M331.956 258.07V250.125C331.956 250.125 336.497 246.722 336.497 241.801C336.497 236.88 332.702 234.983 328.553 236.501" stroke="#263238" stroke-linecap="round" stroke-linejoin="round"/>
<path d="M310.791 283.65C310.791 283.65 319.229 293.378 329.843 293.543C341.103 293.72 354.335 283.865 354.335 283.865C357.352 286.468 360.639 288.742 364.14 290.646C370.047 293.859 373.919 298.565 377.005 306.725C380.459 315.821 388.075 340.553 388.075 340.553L366.151 341.616L369.149 391.333H296.256L301.189 340.73H279.936C279.936 340.73 286.97 307.218 290.183 300.893C293.396 294.568 310.791 283.65 310.791 283.65Z" fill="#6B6B6B" stroke="#263238" stroke-linecap="round" stroke-linejoin="round"/>
<path d="M301.189 340.68L302.302 314.113" stroke="#263238" stroke-linecap="round" stroke-linejoin="round"/>
<path d="M366.151 341.616L364.43 315.821" stroke="#263238" stroke-linecap="round" stroke-linejoin="round"/>
<path d="M301.328 269.608L321.076 270.556V355.139H297.622L301.328 269.608Z" fill="white" stroke="#263238" stroke-linecap="round" stroke-linejoin="round"/>
<path d="M344.088 293.91L338.522 290.115C330.453 284.382 324.165 276.489 320.38 267.343L315.75 256.514H308.375L303.732 267.343C299.952 276.488 293.669 284.381 285.603 290.115L280.037 293.91C278.432 295.094 277.135 296.646 276.254 298.436C275.374 300.226 274.936 302.201 274.977 304.195H349.072C349.122 302.207 348.696 300.236 347.829 298.447C346.962 296.658 345.679 295.102 344.088 293.91ZM314.093 299.628H282.289C282.289 296.212 287.729 293.05 289.879 291.304L293.675 288.192C299.435 283.307 303.774 276.962 306.237 269.823L309.45 261.056H314.51L317.724 269.823C320.203 276.991 324.574 283.355 330.374 288.242L334.233 291.354C336.384 293.1 341.735 296.263 341.735 299.679L314.093 299.628Z" fill="white" stroke="#263238" stroke-linecap="round" stroke-linejoin="round"/>
<path d="M312.018 256.337V248.392C312.018 248.392 316.56 244.977 316.56 240.055C316.56 235.134 312.765 233.249 308.615 234.755" stroke="#263238" stroke-linecap="round" stroke-linejoin="round"/>
<path d="M301.328 269.608L309.893 345.095L320.418 267.343C320.418 267.343 338.345 285.687 344.24 288.849C350.135 292.012 355.499 296.364 357.106 304.929C358.712 313.493 367.226 399.265 367.226 399.265L347.39 400.341L349.212 448.907H269.17L273.99 398.304H255.229C255.229 398.304 267.02 305.586 270.233 299.147C273.446 292.708 301.328 269.608 301.328 269.608Z" fill="white" stroke="#263238" stroke-linecap="round" stroke-linejoin="round"/>
<path d="M301.328 269.608L311.854 350.117L309.324 353.47L285.869 283.954C285.869 283.954 293.295 272.011 301.328 269.608Z" fill="white" stroke="#263238" stroke-linecap="round" stroke-linejoin="round"/>
<path d="M320.418 267.343L306.034 373.61L338.661 283.182C338.661 283.182 320.279 265.559 320.418 267.343Z" fill="white" stroke="#263238" stroke-linecap="round" stroke-linejoin="round"/>
<path d="M270.233 299.084C270.233 299.084 254.913 373.559 251.56 391.156C248.208 408.753 246.5 437.218 246.5 437.218L275.812 438.053L284.187 312.431" fill="white"/>
<path d="M270.233 299.084C270.233 299.084 254.913 373.559 251.56 391.156C248.208 408.753 246.5 437.218 246.5 437.218L275.812 438.053L284.187 312.431" stroke="#263238" stroke-linecap="round" stroke-linejoin="round"/>
<path d="M355.157 299.084C355.157 299.084 370.477 373.559 373.83 391.156C377.182 408.753 378.89 437.218 378.89 437.218L349.578 438.053L341.204 312.431" fill="white"/>
<path d="M355.157 299.084C355.157 299.084 370.477 373.559 373.83 391.156C377.182 408.753 378.89 437.218 378.89 437.218L349.578 438.053L341.204 312.431" stroke="#263238" stroke-linecap="round" stroke-linejoin="round"/>
<path d="M305.997 373.559V449.78" stroke="#263238" stroke-linecap="round" stroke-linejoin="round"/>
<path d="M312.828 295.643L307.261 291.848C299.2 286.11 292.917 278.219 289.133 269.076L284.49 258.247H277.153L272.51 269.076C268.725 278.219 262.443 286.11 254.381 291.848L248.802 295.643C247.197 296.827 245.9 298.379 245.019 300.169C244.139 301.959 243.701 303.934 243.742 305.928H317.888C317.929 303.934 317.491 301.959 316.611 300.169C315.73 298.379 314.433 296.827 312.828 295.643ZM282.871 301.374H251.054C251.054 297.958 256.507 294.795 258.645 293.062L262.44 289.937C268.2 285.055 272.535 278.709 274.989 271.569L278.203 262.802H283.263L286.489 271.569C288.943 278.709 293.278 285.055 299.038 289.937L302.897 293.062C305.048 294.795 310.386 297.958 310.386 301.374H282.871Z" fill="white" stroke="#263238" stroke-linecap="round" stroke-linejoin="round"/>
<path d="M280.783 258.07V250.125C280.783 250.125 285.325 246.722 285.325 241.801C285.325 236.88 281.53 234.983 277.38 236.501" stroke="#263238" stroke-linecap="round" stroke-linejoin="round"/>
<path d="M270.094 271.341L278.671 295.997L289.158 269.076C289.158 269.076 307.084 287.42 312.98 290.583C318.875 293.745 324.226 298.085 325.833 306.662C327.44 315.239 336.017 400.986 336.017 400.986L316.193 402.061L317.977 450.564H237.935L242.755 399.961H224.007C224.007 399.961 235.797 307.218 239.011 300.893C242.224 294.568 270.094 271.341 270.094 271.341Z" fill="#263238" stroke="#263238" stroke-linecap="round" stroke-linejoin="round"/>
<path d="M262.061 277.236L266.88 303.499L277.064 286.357L270.638 268.128L262.061 277.236Z" fill="white" stroke="#263238" stroke-linecap="round" stroke-linejoin="round"/>
<path d="M289.158 269.076L280.277 286.889L289.386 304.574L296.9 275.098L289.158 269.076Z" fill="white" stroke="#263238" stroke-linecap="round" stroke-linejoin="round"/>
<path d="M316.193 402.124L311.904 320.654" stroke="#263238" stroke-linecap="round" stroke-linejoin="round"/>
<path d="M242.755 399.986L250.27 320.654" stroke="#263238" stroke-linecap="round" stroke-linejoin="round"/>
<path d="M283.82 295.643L278.241 291.848C270.179 286.11 263.896 278.219 260.112 269.076L255.469 258.247H248.107L243.464 269.076C239.679 278.219 233.397 286.11 225.335 291.848L219.769 295.643C218.162 296.826 216.864 298.378 215.983 300.168C215.102 301.958 214.665 303.933 214.709 305.928H288.791C288.843 303.941 288.418 301.971 287.554 300.182C286.689 298.393 285.408 296.837 283.82 295.643ZM253.863 301.374H222.021C222.021 297.958 227.46 294.795 229.611 293.062L233.47 289.937C239.23 285.055 243.565 278.709 246.019 271.569L249.232 262.802H254.293L257.506 271.569C259.96 278.709 264.296 285.055 270.056 289.937L273.914 293.062C276.065 294.795 281.403 297.958 281.403 301.374H253.863Z" fill="white" stroke="#263238" stroke-linecap="round" stroke-linejoin="round"/>
<path d="M251.75 258.07V250.125C251.75 250.125 256.291 246.722 256.291 241.801C256.291 236.88 252.496 234.983 248.334 236.501" stroke="#263238" stroke-linecap="round" stroke-linejoin="round"/>
<path d="M241.047 271.341L249.574 295.997L260.061 269.076C260.061 269.076 277.987 287.42 283.883 290.583C289.778 293.745 295.142 298.085 296.749 306.662C298.355 315.239 306.869 400.986 306.869 400.986L287.147 402.099L288.943 450.602H208.889L213.722 399.999H194.96C194.96 399.999 206.751 307.218 209.964 300.893C213.178 294.568 241.047 271.341 241.047 271.341Z" fill="#6B6B6B" stroke="#263238" stroke-linecap="round" stroke-linejoin="round"/>
<path d="M233.014 277.236L237.834 303.499L248.018 286.357L241.591 268.128L233.014 277.236Z" fill="white" stroke="#263238" stroke-linecap="round" stroke-linejoin="round"/>
<path d="M260.112 269.076L251.231 286.889L260.353 304.574L267.855 275.098L260.112 269.076Z" fill="white" stroke="#263238" stroke-linecap="round" stroke-linejoin="round"/>
<path d="M287.147 402.124L282.858 320.654" stroke="#263238" stroke-linecap="round" stroke-linejoin="round"/>
<path d="M213.722 399.986L221.224 320.654" stroke="#263238" stroke-linecap="round" stroke-linejoin="round"/>
<path d="M257.038 295.643L251.472 291.848C243.406 286.115 237.123 278.222 233.343 269.076L228.7 258.247H221.325L216.682 269.076C212.903 278.222 206.619 286.115 198.554 291.848L192.987 295.643C191.382 296.827 190.085 298.379 189.204 300.169C188.324 301.959 187.886 303.934 187.927 305.928H262.023C262.073 303.94 261.646 301.97 260.779 300.18C259.912 298.391 258.629 296.835 257.038 295.643ZM227.081 301.374H195.239C195.239 297.958 200.679 294.795 202.83 293.062L206.688 289.937C212.435 285.049 216.761 278.704 219.212 271.569L222.426 262.802H227.486L230.699 271.569C233.158 278.71 237.498 285.056 243.261 289.937L247.057 293.062C249.22 294.795 254.559 297.958 254.559 301.374H227.081Z" fill="white" stroke="#263238" stroke-linecap="round" stroke-linejoin="round"/>
<path d="M224.968 258.07V250.125C224.968 250.125 229.51 246.722 229.51 241.801C229.51 236.88 225.715 234.983 221.565 236.501" stroke="#263238" stroke-linecap="round" stroke-linejoin="round"/>
<path d="M203.803 283.65C203.803 283.65 212.241 293.378 222.855 293.543C234.115 293.72 247.347 283.865 247.347 283.865C250.368 286.469 253.659 288.742 257.164 290.646C263.06 293.859 266.943 298.565 270.03 306.725C273.484 315.821 281.087 340.553 281.087 340.553L259.176 341.616L262.174 391.333H189.268L194.201 340.73H172.923C172.923 340.73 179.995 307.218 183.195 300.893C186.396 294.568 203.803 283.65 203.803 283.65Z" fill="#A1A1A1" stroke="#263238" stroke-linecap="round" stroke-linejoin="round"/>
<path d="M194.202 340.68L195.315 314.113" stroke="#263238" stroke-linecap="round" stroke-linejoin="round"/>
<path d="M259.163 341.616L257.443 315.821" stroke="#263238" stroke-linecap="round" stroke-linejoin="round"/>
<path d="M236.999 295.643L231.433 291.848C223.367 286.115 217.084 278.222 213.304 269.076L208.661 258.247H201.286L196.643 269.076C192.864 278.222 186.58 286.115 178.515 291.848L172.948 295.643C171.343 296.827 170.046 298.379 169.165 300.169C168.285 301.959 167.847 303.934 167.888 305.928H241.983C242.033 303.94 241.607 301.97 240.74 300.18C239.873 298.391 238.59 296.835 236.999 295.643ZM207.042 301.374H175.2C175.2 297.958 180.64 294.795 182.791 293.062L186.586 289.937C192.35 285.056 196.689 278.71 199.148 271.569L202.361 262.802H207.422L210.635 271.569C213.094 278.707 217.429 285.052 223.184 289.937L227.043 293.062C229.194 294.795 234.545 297.958 234.545 301.374H207.042Z" fill="white" stroke="#263238" stroke-linecap="round" stroke-linejoin="round"/>
<path d="M204.929 258.07V250.125C204.929 250.125 209.471 246.722 209.471 241.801C209.471 236.88 205.676 234.983 201.526 236.501" stroke="#263238" stroke-linecap="round" stroke-linejoin="round"/>
<path d="M183.79 283.65C183.79 283.65 192.228 293.378 202.842 293.543C214.101 293.72 227.334 283.865 227.334 283.865C230.351 286.468 233.638 288.742 237.138 290.646C243.034 293.859 246.905 298.565 250.004 306.725C253.458 315.821 261.061 340.553 261.061 340.553L239.15 341.616L242.148 391.333H169.229L174.163 340.73H152.884C152.884 340.73 159.931 307.307 163.144 300.88C166.357 294.454 183.79 283.65 183.79 283.65Z" fill="white" stroke="#263238" stroke-linecap="round" stroke-linejoin="round"/>
<path d="M174.163 340.68L175.276 314.113" stroke="#263238" stroke-linecap="round" stroke-linejoin="round"/>
<path d="M239.124 341.616L237.404 315.821" stroke="#263238" stroke-linecap="round" stroke-linejoin="round"/>
<path d="M258.429 546.457V253.895C258.429 252.379 258.131 250.878 257.55 249.477C256.969 248.077 256.118 246.804 255.046 245.733C253.973 244.661 252.7 243.812 251.298 243.233C249.897 242.653 248.396 242.356 246.879 242.358H58.016C54.9561 242.358 52.0215 243.573 49.8578 245.737C47.6941 247.901 46.4785 250.835 46.4785 253.895V546.002" stroke="#263238" stroke-width="4" stroke-linejoin="round"/>
<path d="M34.6501 295.643L40.2165 291.848C48.2818 286.115 54.5655 278.222 58.345 269.076L62.9879 258.247H70.3632L74.9934 269.076C78.773 278.222 85.0566 286.115 93.122 291.848L98.6883 295.643C100.293 296.827 101.591 298.379 102.471 300.169C103.352 301.959 103.79 303.934 103.749 305.928H29.6278C29.5822 303.937 30.0144 301.964 30.8882 300.175C31.762 298.385 33.0521 296.831 34.6501 295.643ZM64.6072 301.374H96.4997C96.4997 297.958 91.0473 294.795 88.9093 293.062L85.114 289.937C79.3211 285.064 74.9505 278.718 72.4633 271.569L69.25 262.802H64.1897L60.9764 271.569C58.5179 278.71 54.178 285.056 48.4142 289.937L44.6189 293.062C42.4557 294.795 37.117 297.958 37.117 301.374H64.6072Z" fill="white" stroke="#263238" stroke-linecap="round" stroke-linejoin="round"/>
<path d="M66.7198 258.07V250.125C66.7198 250.125 62.1782 246.722 62.1782 241.801C62.1782 236.88 65.9735 234.983 70.1229 236.501" stroke="#263238" stroke-linecap="round" stroke-linejoin="round"/>
<path d="M87.8846 283.65C87.8846 283.65 79.4465 293.378 68.8325 293.543C57.5733 293.72 44.3406 283.865 44.3406 283.865C41.3157 286.47 38.0203 288.743 34.511 290.646C28.6157 293.859 24.7319 298.565 21.6452 306.725C18.1915 315.821 10.5884 340.553 10.5884 340.553L32.4995 341.616L29.5013 391.333H102.42L97.4865 340.73H118.765C118.765 340.73 111.681 307.218 108.493 300.893C105.305 294.568 87.8846 283.65 87.8846 283.65Z" fill="white" stroke="#263238" stroke-linecap="round" stroke-linejoin="round"/>
<path d="M97.4863 340.68L96.373 314.113" stroke="#263238" stroke-linecap="round" stroke-linejoin="round"/>
<path d="M32.5249 341.616L34.2454 315.821" stroke="#263238" stroke-linecap="round" stroke-linejoin="round"/>
<path d="M45.9978 295.643L51.5641 291.848C59.6295 286.115 65.9131 278.222 69.6927 269.076L74.3355 258.247H81.7109L86.379 269.076C90.1586 278.222 96.4422 286.115 104.508 291.848L110.074 295.643C111.679 296.827 112.976 298.379 113.857 300.169C114.737 301.959 115.176 303.934 115.134 305.928H40.9754C40.9298 303.937 41.362 301.964 42.2359 300.175C43.1097 298.385 44.3997 296.831 45.9978 295.643ZM75.9548 301.374H107.797C107.797 297.958 102.344 294.795 100.206 293.062L96.4111 289.937C90.6506 285.053 86.3113 278.708 83.8489 271.569L80.6356 262.802H75.5753L72.362 271.569C69.9035 278.71 65.5636 285.056 59.7998 289.937L56.0046 293.062C53.8413 294.795 48.5026 297.958 48.5026 301.374H75.9548Z" fill="white" stroke="#263238" stroke-linecap="round" stroke-linejoin="round"/>
<path d="M78.0675 258.07V250.125C78.0675 250.125 73.5259 246.722 73.5259 241.801C73.5259 236.88 77.3211 234.983 81.4706 236.501" stroke="#263238" stroke-linecap="round" stroke-linejoin="round"/>
<path d="M99.2323 283.65C99.2323 283.65 90.7942 293.378 80.1802 293.543C68.9211 293.72 55.6884 283.865 55.6884 283.865C52.6754 286.468 49.3928 288.741 45.8967 290.646C39.9888 293.859 36.1176 298.565 33.0308 306.725C29.5772 315.821 21.9614 340.553 21.9614 340.553L43.8852 341.616L40.8364 391.333H113.73L108.796 340.73H130.075C130.075 340.73 123.066 307.218 119.84 300.893C116.614 294.568 99.2323 283.65 99.2323 283.65Z" fill="#6B6B6B" stroke="#263238" stroke-linecap="round" stroke-linejoin="round"/>
<path d="M108.834 340.68L107.721 314.113" stroke="#263238" stroke-linecap="round" stroke-linejoin="round"/>
<path d="M43.8726 341.616L45.5931 315.821" stroke="#263238" stroke-linecap="round" stroke-linejoin="round"/>
<path d="M108.695 269.608L88.9473 270.556V355.139H112.402L108.695 269.608Z" fill="white" stroke="#263238" stroke-linecap="round" stroke-linejoin="round"/>
<path d="M65.9353 293.91L71.5016 290.115C79.5707 284.382 85.8586 276.489 89.6428 267.343L94.273 256.514H101.648L106.291 267.343C110.071 276.488 116.354 284.381 124.42 290.115L129.986 293.91C131.591 295.094 132.889 296.646 133.769 298.436C134.65 300.226 135.088 302.201 135.046 304.195H60.9129C60.8673 302.204 61.2995 300.231 62.1734 298.442C63.0472 296.652 64.3372 295.098 65.9353 293.91ZM95.8923 299.628H127.734C127.734 296.212 122.294 293.05 120.144 291.304L116.349 288.192C110.589 283.307 106.249 276.962 103.786 269.823L100.573 261.056H95.5128L92.2995 269.823C89.8203 276.991 85.4492 283.355 79.6487 288.242L75.7902 291.354C73.6396 293.1 68.2883 296.263 68.2883 299.679L95.8923 299.628Z" fill="white" stroke="#263238" stroke-linecap="round" stroke-linejoin="round"/>
<path d="M98.005 256.337V248.392C98.005 248.392 93.4634 244.977 93.4634 240.055C93.4634 235.134 97.2586 233.249 101.408 234.755" stroke="#263238" stroke-linecap="round" stroke-linejoin="round"/>
<path d="M108.695 269.608L100.13 345.095L89.6428 267.343C89.6428 267.343 71.7167 285.687 65.8214 288.849C59.9261 292.012 54.5622 296.364 52.9556 304.929C51.3489 313.493 42.835 399.265 42.835 399.265L62.6714 400.341L60.8117 448.907H140.853L136.033 398.304H154.794C154.794 398.304 143.004 305.586 139.79 299.147C136.577 292.708 108.695 269.608 108.695 269.608Z" fill="white" stroke="#263238" stroke-linecap="round" stroke-linejoin="round"/>
<path d="M108.695 269.608L98.1694 350.117L100.7 353.47L124.154 283.954C124.154 283.954 116.741 272.011 108.695 269.608Z" fill="white" stroke="#263238" stroke-linecap="round" stroke-linejoin="round"/>
<path d="M89.6432 267.343L104.027 373.61L71.3628 283.182C71.3628 283.182 89.7444 265.559 89.6432 267.343Z" fill="white" stroke="#263238" stroke-linecap="round" stroke-linejoin="round"/>
<path d="M139.791 299.084C139.791 299.084 155.111 373.559 158.463 391.156C161.816 408.753 163.524 437.218 163.524 437.218L134.212 438.053L125.837 312.431" fill="white"/>
<path d="M139.791 299.084C139.791 299.084 155.111 373.559 158.463 391.156C161.816 408.753 163.524 437.218 163.524 437.218L134.212 438.053L125.837 312.431" stroke="#263238" stroke-linecap="round" stroke-linejoin="round"/>
<path d="M54.8661 299.084C54.8661 299.084 39.5714 373.559 36.1936 391.156C32.8159 408.753 31.1333 437.218 31.1333 437.218L60.4451 438.053L68.8199 312.431" fill="white"/>
<path d="M54.8661 299.084C54.8661 299.084 39.5714 373.559 36.1936 391.156C32.8159 408.753 31.1333 437.218 31.1333 437.218L60.4451 438.053L68.8199 312.431" stroke="#263238" stroke-linecap="round" stroke-linejoin="round"/>
<path d="M104.027 373.559V449.78" stroke="#263238" stroke-linecap="round" stroke-linejoin="round"/>
<path d="M97.1702 295.643L102.736 291.848C110.798 286.11 117.081 278.219 120.865 269.076L125.508 258.247H132.871L137.513 269.076C141.298 278.222 147.586 286.115 155.655 291.848L161.221 295.643C162.826 296.827 164.123 298.379 165.004 300.169C165.885 301.959 166.323 303.934 166.281 305.928H92.1478C92.1022 303.937 92.5344 301.964 93.4082 300.175C94.2821 298.385 95.5721 296.831 97.1702 295.643ZM127.127 301.374H158.969C158.969 297.958 153.517 294.795 151.379 293.062L147.52 289.937C141.764 285.052 137.43 278.707 134.971 271.569L131.757 262.802H126.697L123.471 271.569C121.017 278.709 116.682 285.055 110.922 289.937L107.126 293.062C104.976 294.795 99.6371 297.958 99.6371 301.374H127.127Z" fill="white" stroke="#263238" stroke-linecap="round" stroke-linejoin="round"/>
<path d="M129.24 258.07V250.125C129.24 250.125 124.698 246.722 124.698 241.801C124.698 236.88 128.493 234.983 132.643 236.501" stroke="#263238" stroke-linecap="round" stroke-linejoin="round"/>
<path d="M139.93 271.341L131.353 295.997L120.865 269.076C120.865 269.076 102.939 287.42 97.0436 290.583C91.1484 293.745 85.7971 298.085 84.1904 306.662C82.5838 315.239 74.0698 400.986 74.0698 400.986L93.8936 402.061L92.1098 450.564H172.151L167.331 399.961H186.092C186.092 399.961 174.226 307.218 171.013 300.893C167.799 294.568 139.93 271.341 139.93 271.341Z" fill="#263238" stroke="#263238" stroke-linecap="round" stroke-linejoin="round"/>
<path d="M147.963 277.236L143.143 303.499L132.959 286.357L139.398 268.128L147.963 277.236Z" fill="white" stroke="#263238" stroke-linecap="round" stroke-linejoin="round"/>
<path d="M120.865 269.076L129.746 286.889L120.638 304.574L113.123 275.098L120.865 269.076Z" fill="white" stroke="#263238" stroke-linecap="round" stroke-linejoin="round"/>
<path d="M93.8306 402.124L98.1192 320.654" stroke="#263238" stroke-linecap="round" stroke-linejoin="round"/>
<path d="M167.268 399.986L159.753 320.654" stroke="#263238" stroke-linecap="round" stroke-linejoin="round"/>
<path d="M126.204 295.643L131.783 291.848C139.844 286.11 146.127 278.219 149.911 269.076L154.554 258.247H161.917L166.56 269.076C170.344 278.219 176.627 286.11 184.688 291.848L190.255 295.643C191.861 296.826 193.16 298.378 194.04 300.168C194.921 301.958 195.358 303.933 195.315 305.928H121.181C121.136 303.937 121.568 301.964 122.442 300.175C123.316 298.385 124.606 296.831 126.204 295.643ZM156.161 301.374H188.003C188.003 297.958 182.563 294.795 180.412 293.062L176.554 289.937C170.794 285.055 166.458 278.709 164.004 271.569L160.791 262.802H155.731L152.517 271.569C150.064 278.709 145.728 285.055 139.968 289.937L136.173 293.062C134.022 294.795 128.683 297.958 128.683 301.374H156.161Z" fill="white" stroke="#263238" stroke-linecap="round" stroke-linejoin="round"/>
<path d="M158.274 258.07V250.125C158.274 250.125 153.732 246.722 153.732 241.801C153.732 236.88 157.527 234.983 161.689 236.501" stroke="#263238" stroke-linecap="round" stroke-linejoin="round"/>
<path d="M168.976 271.341L160.399 295.997L149.911 269.076C149.911 269.076 131.985 287.42 126.09 290.583C120.195 293.745 114.831 298.085 113.224 306.662C111.617 315.239 103.104 400.986 103.104 400.986L122.94 402.061L121.144 450.564H201.198L196.365 399.961H215.126C215.126 399.961 203.272 307.218 200.059 300.893C196.846 294.568 168.976 271.341 168.976 271.341Z" fill="#6B6B6B" stroke="#263238" stroke-linecap="round" stroke-linejoin="round"/>
<path d="M177.009 277.236L172.189 303.499L162.005 286.357L168.432 268.128L177.009 277.236Z" fill="white" stroke="#263238" stroke-linecap="round" stroke-linejoin="round"/>
<path d="M149.911 269.076L158.792 286.889L149.671 304.574L142.169 275.098L149.911 269.076Z" fill="white" stroke="#263238" stroke-linecap="round" stroke-linejoin="round"/>
<path d="M122.876 402.124L127.165 320.654" stroke="#263238" stroke-linecap="round" stroke-linejoin="round"/>
<path d="M196.302 399.986L188.8 320.654" stroke="#263238" stroke-linecap="round" stroke-linejoin="round"/>
<path d="M152.986 295.643L158.552 291.848C166.617 286.115 172.901 278.222 176.68 269.076L181.323 258.247H188.699L193.342 269.076C197.121 278.222 203.405 286.115 211.47 291.848L217.036 295.643C218.641 296.827 219.939 298.379 220.819 300.169C221.7 301.959 222.138 303.934 222.097 305.928H147.963C147.918 303.937 148.35 301.964 149.224 300.175C150.098 298.385 151.388 296.831 152.986 295.643ZM182.943 301.374H214.785C214.785 297.958 209.345 294.795 207.194 293.062L203.336 289.937C197.58 285.052 193.245 278.707 190.786 271.569L187.585 262.802H182.525L179.312 271.569C176.853 278.71 172.513 285.056 166.75 289.937L162.954 293.062C160.791 294.795 155.453 297.958 155.453 301.374H182.943Z" fill="white" stroke="#263238" stroke-linecap="round" stroke-linejoin="round"/>
<path d="M185.055 258.07V250.125C185.055 250.125 180.514 246.722 180.514 241.801C180.514 236.88 184.309 234.983 188.458 236.501" stroke="#263238" stroke-linecap="round" stroke-linejoin="round"/>
<path d="M206.22 283.65C206.22 283.65 197.782 293.378 187.168 293.543C175.908 293.72 162.676 283.865 162.676 283.865C159.659 286.468 156.372 288.742 152.871 290.646C146.976 293.859 143.092 298.565 140.005 306.725C136.552 315.821 128.949 340.553 128.949 340.553L150.86 341.616L147.862 391.333H220.755L215.822 340.73H237.1C237.1 340.73 230.054 307.218 226.802 300.893C223.551 294.568 206.22 283.65 206.22 283.65Z" fill="#A1A1A1" stroke="#263238" stroke-linecap="round" stroke-linejoin="round"/>
<path d="M215.822 340.68L214.708 314.113" stroke="#263238" stroke-linecap="round" stroke-linejoin="round"/>
<path d="M150.86 341.616L152.58 315.821" stroke="#263238" stroke-linecap="round" stroke-linejoin="round"/>
<path d="M173.024 295.643L178.59 291.848C186.656 286.115 192.94 278.222 196.719 269.076L201.362 258.247H208.737L213.38 269.076C217.16 278.222 223.443 286.115 231.509 291.848L237.075 295.643C238.68 296.827 239.977 298.379 240.858 300.169C241.739 301.959 242.177 303.934 242.135 305.928H168.002C167.956 303.937 168.388 301.964 169.262 300.175C170.136 298.385 171.426 296.831 173.024 295.643ZM202.981 301.374H234.823C234.823 297.958 229.383 294.795 227.233 293.062L223.437 289.937C217.674 285.056 213.334 278.71 210.875 271.569L207.662 262.802H202.602L199.388 271.569C196.929 278.707 192.595 285.052 186.839 289.937L182.98 293.062C180.83 294.795 175.478 297.958 175.478 301.374H202.981Z" fill="white" stroke="#263238" stroke-linecap="round" stroke-linejoin="round"/>
<path d="M205.094 258.07V250.125C205.094 250.125 200.552 246.722 200.552 241.801C200.552 236.88 204.347 234.983 208.497 236.501" stroke="#263238" stroke-linecap="round" stroke-linejoin="round"/>
<path d="M226.259 283.65C226.259 283.65 217.821 293.378 207.207 293.543C195.947 293.72 182.715 283.865 182.715 283.865C179.698 286.468 176.411 288.742 172.91 290.646C167.015 293.859 163.144 298.565 160.045 306.725C156.604 315.821 148.988 340.553 148.988 340.553L170.899 341.616L167.901 391.333H240.794L235.861 340.73H257.164C257.164 340.73 250.093 307.218 246.879 300.893C243.666 294.568 226.259 283.65 226.259 283.65Z" fill="white" stroke="#263238" stroke-linecap="round" stroke-linejoin="round"/>
<path d="M235.86 340.68L234.747 314.113" stroke="#263238" stroke-linecap="round" stroke-linejoin="round"/>
<path d="M170.899 341.616L172.619 315.821" stroke="#263238" stroke-linecap="round" stroke-linejoin="round"/>
<path d="M337.459 303.347C337.459 303.347 334.865 351.509 335.978 364.071C337.092 376.633 340.798 396.305 341.165 401.492C341.532 406.679 345.618 420.38 347.832 429.324C350.046 438.268 365.619 483.785 368.946 492.299C372.273 500.813 372.514 525.849 372.514 525.849C372.514 525.849 357.687 537.703 352.88 540.296C348.073 542.89 345.833 541.776 346.554 545.116C347.276 548.456 372.855 545.483 378.789 545.483C384.722 545.483 393.603 546.596 393.97 542.523C394.336 538.449 389.529 525.482 388.416 519.549C387.303 513.616 387.075 485.999 385.962 469.325C384.848 452.652 384.861 440.811 379.295 426.73C373.728 412.65 368.187 395.976 368.187 395.976L383.027 314.809L337.459 303.347Z" fill="white" stroke="#263238" stroke-linecap="round" stroke-linejoin="round"/>
<path d="M371.476 514.476C370.781 508.606 367.871 497.056 366.631 491.123C364.746 482.166 350.059 438.204 347.832 429.311C345.606 420.418 341.507 406.704 341.165 401.479C340.824 396.255 337.092 376.659 335.978 364.058C334.865 351.458 337.459 303.335 337.459 303.335L383.001 314.822L368.187 395.951C368.187 395.951 373.741 412.625 379.295 426.705C384.848 440.785 384.861 452.639 385.962 469.3C386.822 482.179 386.797 503.761 387.657 513.198C382.465 515.02 376.889 515.461 371.476 514.476Z" fill="#263238" stroke="#263238" stroke-linecap="round" stroke-linejoin="round"/>
<path d="M346.58 545.053C345.833 541.713 348.06 542.826 352.905 540.233C356.586 538.259 366.087 530.871 370.376 527.494C371.713 527.87 372.874 528.709 373.652 529.859C374.433 531.136 375.054 532.504 375.499 533.933L391.768 531.567C393.033 536.096 394.21 540.423 394.02 542.459C393.653 546.533 384.76 545.42 378.839 545.42C372.919 545.42 347.313 548.431 346.58 545.053Z" fill="#666666" stroke="#263238" stroke-linecap="round" stroke-linejoin="round"/>
<path d="M417.108 309.281C417.108 309.281 414.514 332.621 406 353.735C397.486 374.849 389.251 405.097 389.251 405.097C389.251 405.097 404.571 422.745 407.91 438.673C411.25 454.6 412.971 483.773 413.401 487.467C413.831 491.161 417.108 503.773 422.256 508.973C427.405 514.172 431.517 515.298 429.303 519.346C427.089 523.395 414.856 538.98 412.629 541.574C410.403 544.167 401.142 546.014 397.069 546.014C392.995 546.014 395.589 546.014 397.436 539.689C399.283 533.364 401.509 515.981 401.509 510.428C401.509 504.874 394.842 484.127 387.442 471.527C380.041 458.926 368.908 424.845 365.581 416.698C362.254 408.551 357.801 401.884 357.801 396.697C357.801 391.51 361.874 341.869 362.621 332.975C363.367 324.082 364.468 314.088 364.468 314.088L418.183 304.448L417.108 309.281Z" fill="white" stroke="#263238" stroke-linecap="round" stroke-linejoin="round"/>
<path d="M397.107 546.002C393.033 546.002 395.627 546.002 397.474 539.676C399.119 534.097 401.054 519.815 401.472 512.755C402.585 511.794 406.772 508.391 409.328 509.669C411.089 510.55 412.615 511.838 413.781 513.426L420.549 506.86C421.074 507.613 421.658 508.324 422.295 508.986C427.482 514.172 431.555 515.311 429.341 519.359C427.127 523.407 414.894 538.993 412.667 541.587C410.441 544.18 401.181 546.002 397.107 546.002Z" fill="#666666" stroke="#263238" stroke-linecap="round" stroke-linejoin="round"/>
<path d="M362.659 332.988C363.393 324.133 364.506 314.1 364.506 314.1L421.928 303.879L423.193 312.734C423.193 312.734 422.244 328.877 413.73 350.003C405.216 371.13 389.263 405.11 389.263 405.11C389.263 405.11 404.584 422.758 407.923 438.685C411.263 454.613 412.984 483.785 413.414 487.479C413.901 490.677 414.693 493.82 415.779 496.866C410.965 499.774 405.563 501.572 399.966 502.129C397.55 493.273 392.704 480.42 387.492 471.552C380.079 458.901 368.959 424.871 365.632 416.723C362.305 408.576 357.852 401.909 357.852 396.723C357.852 391.536 361.912 341.882 362.659 332.988Z" fill="#263238" stroke="#263238" stroke-linecap="round" stroke-linejoin="round"/>
<path d="M379.636 456.067C373.197 439.938 363.38 421.91 360.141 409.576C355.663 392.586 362.671 332.988 362.671 332.988" stroke="#7D7D7D" stroke-linecap="round" stroke-linejoin="round"/>
<path d="M383.672 466.213L381.647 461.153" stroke="#7D7D7D" stroke-linecap="round" stroke-linejoin="round"/>
<path d="M275.976 173.816C275.976 173.816 266.64 169.034 264.337 168.389C262.035 167.744 260.706 169.856 261.605 170.464C262.503 171.071 263.97 172.197 263.97 172.197C263.97 172.197 259.732 172.07 260.77 173.462L262.844 176.182C262.844 176.182 259.049 176.903 260.023 178.585C260.917 179.77 262.175 180.628 263.603 181.027C263.603 181.027 259.745 182.077 261.453 183.62C263.161 185.164 268.234 184.886 268.234 184.886C269.603 187.526 271.477 189.873 273.749 191.793C276.106 193.52 278.896 194.558 281.808 194.791L287.045 200.193L294.054 191.843L275.976 173.816Z" fill="white" stroke="#263238" stroke-linecap="round" stroke-linejoin="round"/>
<path d="M198.047 166.58L204.967 163.265C215.011 158.309 223.455 150.623 229.332 141.089L236.493 129.791L237.277 129.918L243.969 130.993L244.741 131.12L247.992 144.099C250.593 155.002 256.214 164.95 264.211 172.804L269.815 178.181C271.394 179.8 272.563 181.774 273.223 183.937C273.883 186.101 274.016 188.391 273.61 190.616L235.455 184.468L228.763 183.393L190.608 177.244C190.903 175.001 191.732 172.861 193.027 171.005C194.322 169.149 196.043 167.631 198.047 166.58ZM230.56 178.396L235.202 179.142L266.235 184.202C266.842 180.407 261.314 175.853 259.213 173.512L255.418 169.325C249.849 162.814 246.138 154.921 244.678 146.478L242.654 136.079L242.11 136.003L237.479 135.257L236.923 135.168L231.749 144.403C227.704 151.959 221.7 158.287 214.367 162.721L209.496 165.517C206.763 167.073 200.21 169.654 199.59 173.475L230.56 178.396Z" fill="white" stroke="#263238" stroke-linecap="round" stroke-linejoin="round"/>
<path d="M240.718 130.272L242.16 121.417C242.16 121.417 237.682 116.786 238.568 111.296C239.453 105.806 244.045 104.338 248.435 106.792" stroke="#263238" stroke-linecap="round" stroke-linejoin="round"/>
<path d="M187.37 217.689L172.872 214.172C172.872 214.172 175.997 186.201 181.5 176.637C186.434 168.06 191.621 163.48 198.806 160.95C203.074 159.452 207.167 157.496 211.014 155.118C211.014 155.118 224.057 168.553 236.708 170.388C248.625 172.108 259.833 162.734 259.833 162.734C259.833 162.734 277.38 177.915 279.822 185.695C282.263 193.475 284.136 232.187 284.136 232.187L260.302 228.392L267.095 286.016L266.462 285.902L267.095 287.496C267.095 287.496 259.416 283.701 244.551 285.156C229.687 286.61 212.988 289.229 205.929 287.382C198.869 285.535 177.009 277.261 177.009 277.261L187.37 217.689Z" fill="#4E8397" stroke="#263238" stroke-linecap="round" stroke-linejoin="round"/>
<path d="M260.301 228.354L258.669 215.665" stroke="#263238" stroke-linecap="round" stroke-linejoin="round"/>
<path d="M187.37 217.689L193.202 187.074" stroke="#263238" stroke-linecap="round" stroke-linejoin="round"/>
<path d="M209.648 159.951C208.66 166.228 208.161 172.573 208.155 178.927" stroke="#263238" stroke-linecap="round" stroke-linejoin="round"/>
<path d="M206.675 160.697C205.605 164.21 204.859 167.814 204.448 171.463" stroke="#263238" stroke-linecap="round" stroke-linejoin="round"/>
<path d="M248.486 203.267C248.764 204.444 249.068 205.608 249.384 206.746" stroke="#263238" stroke-linecap="round" stroke-linejoin="round"/>
<path d="M243.438 173.69C243.438 173.69 244.703 185.657 247.233 198.093" stroke="#263238" stroke-linecap="round" stroke-linejoin="round"/>
<path d="M247.524 171.096C249.021 175.233 250.264 179.458 251.244 183.747" stroke="#263238" stroke-linecap="round" stroke-linejoin="round"/>
<path d="M200.16 271.493L210.166 197.245" stroke="#263238" stroke-linecap="round" stroke-linejoin="round"/>
<path d="M198.629 282.764L199.223 278.425" stroke="#263238" stroke-linecap="round" stroke-linejoin="round"/>
<path d="M224.424 170.097L222.387 206.746" stroke="#263238" stroke-linecap="round" stroke-linejoin="round"/>
<path d="M293.851 189.566C293.851 189.566 287.007 181.419 284.3 180.129C281.593 178.838 272.838 177.131 269.562 175.195C266.285 173.259 265.375 174.284 267.247 176.966C269.119 179.648 275.748 182.317 275.748 182.317C275.748 182.317 278.582 188.731 281.858 190.667L289.322 195.082L293.851 189.566Z" fill="white" stroke="#263238" stroke-linecap="round" stroke-linejoin="round"/>
<path d="M360.597 188.997C360.597 188.997 347.541 188.997 345.618 192.451C343.695 195.904 335.257 216.639 331.804 222.458C328.35 228.278 328.35 229.745 328.35 229.745L293.421 187.036L281.201 197.448C281.201 197.448 321.886 265.003 324.96 266.154C328.034 267.305 346.833 251.947 349.135 250.796C351.438 249.645 364.114 194.374 364.114 194.374C364.114 194.374 367.112 191.299 360.597 188.997Z" fill="#666666" stroke="#263238" stroke-linecap="round" stroke-linejoin="round"/>
<path d="M359.053 194.753L402.066 183.62C402.066 183.62 408.594 219.7 408.594 235.489C408.594 251.277 419.537 310.912 419.537 310.912C419.537 310.912 387.1 320.704 369.06 320.704C351.02 320.704 339.508 314.176 339.508 314.176C339.508 314.176 348.363 283.815 348.718 267.369C349.072 250.923 346.795 228.594 348.718 215.5C349.88 207.665 353.499 200.401 359.053 194.753Z" fill="white" stroke="#263238" stroke-linecap="round" stroke-linejoin="round"/>
<path d="M354.866 247.241L368.301 266.053" stroke="#263238" stroke-linecap="round" stroke-linejoin="round"/>
<path d="M368.807 273.099L370.654 275.794" stroke="#263238" stroke-linecap="round" stroke-linejoin="round"/>
<path d="M358.901 258.665L366.593 269.886" stroke="#263238" stroke-linecap="round" stroke-linejoin="round"/>
<path d="M347.541 204.355C347.541 204.355 346.39 208.58 344.859 215.488C343.328 222.395 343.708 227 344.467 243.509C345.226 260.018 344.467 264.611 339.09 277.287C333.714 289.963 318.963 322.475 318.963 322.475L332.398 334.759C332.398 334.759 344.467 303.765 349.072 284.574C353.677 265.382 353.31 238.904 354.828 225.849C356.346 212.793 369.035 192.096 369.035 192.096L371.717 187.492C368.104 188.539 364.358 189.055 360.597 189.022C357.231 188.919 353.869 189.307 350.615 190.174" fill="#666666"/>
<path d="M347.541 204.355C347.541 204.355 346.39 208.58 344.859 215.488C343.328 222.395 343.708 227 344.467 243.509C345.226 260.018 344.467 264.611 339.09 277.287C333.714 289.963 318.963 322.475 318.963 322.475L332.398 334.759C332.398 334.759 344.467 303.765 349.072 284.574C353.677 265.382 353.31 238.904 354.828 225.849C356.346 212.793 369.035 192.096 369.035 192.096L371.717 187.492C368.104 188.539 364.358 189.055 360.597 189.022C357.231 188.919 353.869 189.307 350.615 190.174" stroke="#263238" stroke-linecap="round" stroke-linejoin="round"/>
<path d="M398.587 182.09C398.587 182.09 379.016 216.247 375.183 227.379C371.35 238.512 374.032 245.091 374.791 252.681C375.55 260.271 386.493 340.452 386.493 340.452C386.493 340.452 411.795 332.773 422.193 328.927C432.592 325.081 436.008 320.869 436.008 320.869C436.008 320.869 417.26 257.956 417.26 256.413C417.26 254.87 433.516 184.772 430.834 183.241C428.152 181.71 398.587 182.09 398.587 182.09Z" fill="#666666" stroke="#263238" stroke-linecap="round" stroke-linejoin="round"/>
<path d="M357.396 179.446C357.396 179.446 357.928 191.907 355.537 197.751C354.423 200.859 352.609 203.668 350.236 205.962C350.236 205.962 360.837 200.661 364.822 196.423C367.842 192.898 370.507 189.085 372.78 185.037L365.619 172.576L357.396 179.446Z" fill="#263238" stroke="#263238" stroke-linecap="round" stroke-linejoin="round"/>
<path d="M342.241 125.604C340.872 129.979 339.919 134.473 339.394 139.027C339.027 144.466 340.988 145.618 340.659 148.881C340.33 152.145 335.447 157.889 336.168 160.432C336.889 162.974 341.229 164.417 341.229 164.417C341.229 164.417 344.505 177.067 345.593 180.382C346.681 183.696 351.387 182.558 356.106 181.103C359.555 179.974 362.934 178.644 366.226 177.118L370.578 187.631L395.247 175.663L384.735 133.916C384.735 133.916 370.224 122.669 361.154 122.669L342.241 125.604Z" fill="white" stroke="#263238" stroke-linecap="round" stroke-linejoin="round"/>
<path d="M366.188 177.118L372.147 173.158L368.605 180.584L366.188 177.118Z" fill="#263238" stroke="#263238" stroke-linecap="round" stroke-linejoin="round"/>
<path d="M344.138 150.488C344.138 152.095 344.733 153.398 345.466 153.398C346.2 153.398 346.732 152.133 346.732 150.488C346.732 148.843 346.15 147.566 345.466 147.566C344.783 147.566 344.138 148.869 344.138 150.488Z" fill="#263238"/>
<path d="M349.97 144.643C349.97 144.643 346.516 138.546 342.013 142.265" stroke="#263238" stroke-linecap="round" stroke-linejoin="round"/>
<path d="M353.411 165.062C353.411 165.062 349.831 169.641 345.732 167.453" stroke="#263238" stroke-linecap="round" stroke-linejoin="round"/>
<path d="M382.053 194.5C382.053 194.5 381.331 195.145 376.486 196.891C369.693 199.32 367.466 197.688 367.466 197.688C366.326 192.951 365.426 188.158 364.772 183.33C364.506 179.357 365.632 179.99 372.78 178.851C380.762 177.586 392.844 172.678 394.703 172.678C396.563 172.678 397.702 172.488 397.702 174.879C397.702 177.27 400.093 186.011 400.093 186.011C394.384 189.449 388.34 192.293 382.053 194.5Z" fill="white" stroke="#263238" stroke-linecap="round" stroke-linejoin="round"/>
<path d="M375.626 149.906C375.626 149.906 370.907 149.906 368.731 148.451C367.271 147.245 366.249 145.591 365.822 143.745C365.822 143.745 350.223 139.748 343.341 131.094C336.459 122.441 331.728 121.657 334.992 117.672C338.256 113.687 360.749 107.147 368.01 104.25C375.272 101.353 386.202 106.071 396.323 114.358C406.443 122.644 406.127 123.782 407.569 134.308C409.011 144.833 418.816 181.47 418.816 181.47L408.695 183.646C408.695 183.646 402.888 195.259 392.376 201.053C381.863 206.847 375.689 207.594 375.689 207.594C375.689 207.594 384.026 189.086 384.026 173.12C384.026 157.155 375.626 149.906 375.626 149.906Z" fill="#263238" stroke="#263238" stroke-linecap="round" stroke-linejoin="round"/>
<path d="M370.907 153.17C370.907 153.17 373.804 138.293 380.699 143.049C387.594 147.806 379.244 164.455 376.714 164.088C374.184 163.721 371.995 160.824 371.995 160.824" fill="white"/>
<path d="M370.907 153.17C370.907 153.17 373.804 138.293 380.699 143.049C387.594 147.806 379.244 164.455 376.714 164.088C374.184 163.721 371.995 160.824 371.995 160.824" stroke="#263238" stroke-linecap="round" stroke-linejoin="round"/>
<path d="M506.612 202.344C506.612 202.344 517.669 200.13 520.249 200.13C522.83 200.13 523.564 202.66 522.451 203.077C521.337 203.495 519.503 204.191 519.503 204.191C519.503 204.191 523.931 205.291 522.451 206.392L519.503 208.606C519.503 208.606 523.197 210.453 521.717 211.92C520.448 212.887 518.896 213.407 517.302 213.4C517.302 213.4 520.983 215.614 518.769 216.715C516.555 217.816 511.394 215.981 511.394 215.981C509.2 218.307 506.575 220.185 503.664 221.51C500.718 222.607 497.524 222.861 494.442 222.243L487.408 226.254L482.613 215.564L506.612 202.344Z" fill="white" stroke="#263238" stroke-linecap="round" stroke-linejoin="round"/>
<path d="M416.627 183.241C416.627 183.241 426.608 180.559 430.834 183.241C435.059 185.923 436.21 208.542 436.21 208.542L448.861 238.095L484.562 213.906L496.074 230.795C496.074 230.795 450.392 272.644 446.559 274.175C445.263 274.839 443.77 275.01 442.358 274.656C440.945 274.303 439.71 273.448 438.88 272.252C437.349 270.341 409.707 223.508 409.707 223.508" fill="#666666"/>
<path d="M416.627 183.241C416.627 183.241 426.608 180.559 430.834 183.241C435.059 185.923 436.21 208.542 436.21 208.542L448.861 238.095L484.562 213.906L496.074 230.795C496.074 230.795 450.392 272.644 446.559 274.175C445.263 274.839 443.77 275.01 442.358 274.656C440.945 274.303 439.71 273.448 438.88 272.252C437.349 270.341 409.707 223.508 409.707 223.508" stroke="#263238" stroke-linecap="round" stroke-linejoin="round"/>
<path d="M526.196 225.393L503.791 226.469V322.437H530.396L526.196 225.393Z" fill="#666666" stroke="#263238" stroke-linecap="round" stroke-linejoin="round"/>
<path d="M477.68 252.959L484.005 248.595C493.144 242.105 500.272 233.175 504.575 222.825L509.838 210.541H518.2L523.463 222.825C527.765 233.175 534.894 242.105 544.033 248.595L550.358 252.959C552.17 254.31 553.633 256.075 554.623 258.106C555.613 260.138 556.103 262.377 556.051 264.636H471.987C471.935 262.377 472.424 260.138 473.415 258.106C474.405 256.075 475.867 254.31 477.68 252.959ZM511.672 259.462H547.803C547.803 255.591 541.617 251.998 539.175 250.024L534.798 246.495C528.269 240.948 523.353 233.747 520.566 225.646L516.91 215.703H511.128L507.472 225.646C504.684 233.747 499.768 240.948 493.24 246.495L488.863 250.024C486.421 251.998 480.361 255.591 480.361 259.462H511.672Z" fill="white" stroke="#263238" stroke-linecap="round" stroke-linejoin="round"/>
<path d="M514.063 210.339V201.319C514.063 201.319 508.915 197.448 508.915 191.869C508.915 186.29 513.203 184.139 517.935 185.86" stroke="#263238" stroke-linecap="round" stroke-linejoin="round"/>
<path d="M526.195 225.393L516.505 311.014L504.613 222.813C504.613 222.813 484.283 243.623 477.591 247.279C470.899 250.935 464.814 255.793 462.992 265.522C461.17 275.25 451.442 372.547 451.442 372.547L473.935 373.812L471.911 428.83H562.68L557.215 371.383H578.494C578.494 371.383 565.122 266.179 561.466 258.88C557.81 251.58 526.195 225.393 526.195 225.393Z" fill="#4E8397" stroke="#263238" stroke-linecap="round" stroke-linejoin="round"/>
<path d="M526.195 225.393L514.253 316.732L517.099 320.527L543.666 241.675C543.666 241.675 535.304 228.126 526.195 225.393Z" fill="#263238" stroke="#263238" stroke-linecap="round" stroke-linejoin="round"/>
<path d="M504.575 222.825L520.894 343.336L483.84 240.713C483.84 240.713 504.689 220.801 504.575 222.825Z" fill="#263238" stroke="#263238" stroke-linecap="round" stroke-linejoin="round"/>
<path d="M561.466 258.842C561.466 258.842 578.86 343.336 582.656 363.287C586.451 383.237 588.361 415.547 588.361 415.547L555.102 416.496L545.602 273.972" fill="#4E8397"/>
<path d="M561.466 258.842C561.466 258.842 578.86 343.336 582.656 363.287C586.451 383.237 588.361 415.547 588.361 415.547L555.102 416.496L545.602 273.972" stroke="#263238" stroke-linecap="round" stroke-linejoin="round"/>
<path d="M554.508 418.849H589.108C589.897 418.849 590.537 418.209 590.537 417.419V407.577C590.537 406.787 589.897 406.147 589.108 406.147H554.508C553.718 406.147 553.078 406.787 553.078 407.577V417.419C553.078 418.209 553.718 418.849 554.508 418.849Z" fill="#263238" stroke="#263238" stroke-linecap="round" stroke-linejoin="round"/>
<path d="M465.117 258.842C465.117 258.842 447.735 343.336 443.94 363.287C440.145 383.237 438.234 415.547 438.234 415.547L471.493 416.496L480.994 273.972" fill="#4E8397"/>
<path d="M465.117 258.842C465.117 258.842 447.735 343.336 443.94 363.287C440.145 383.237 438.234 415.547 438.234 415.547L471.493 416.496L480.994 273.972" stroke="#263238" stroke-linecap="round" stroke-linejoin="round"/>
<path d="M437.235 418.849H471.835C472.625 418.849 473.265 418.209 473.265 417.419V407.577C473.265 406.787 472.625 406.147 471.835 406.147H437.235C436.446 406.147 435.806 406.787 435.806 407.577V417.419C435.806 418.209 436.446 418.849 437.235 418.849Z" fill="#263238" stroke="#263238" stroke-linecap="round" stroke-linejoin="round"/>
<path d="M520.895 343.336V428.324" stroke="#263238" stroke-linecap="round" stroke-linejoin="round"/>
<path d="M488.521 213.185C492.026 210.162 496.352 203.33 497.934 202.698C500.704 201.559 509.56 200.357 512.937 198.612C516.315 196.866 517.175 197.954 515.139 200.535C513.102 203.115 506.384 205.38 506.384 205.38C506.384 205.38 503.184 211.604 499.806 213.35L497.567 214.552" fill="white"/>
<path d="M488.521 213.185C492.026 210.162 496.352 203.33 497.934 202.698C500.704 201.559 509.56 200.357 512.937 198.612C516.315 196.866 517.175 197.954 515.139 200.535C513.102 203.115 506.384 205.38 506.384 205.38C506.384 205.38 503.184 211.604 499.806 213.35L497.567 214.552" stroke="#263238" stroke-linecap="round" stroke-linejoin="round"/>
<path d="M1.61865 546.356H600" stroke="#263238" stroke-linecap="round" stroke-linejoin="round"/>
</svg>
